<?xml version="1.0" encoding="utf-8"?>
<!-- Generator: Adobe Illustrator 21.0.0, SVG Export Plug-In . SVG Version: 6.00 Build 0)  -->
<svg version="1.1" id="Calque_1" xmlns="http://www.w3.org/2000/svg" xmlns:xlink="http://www.w3.org/1999/xlink" x="0px" y="0px"
	 viewBox="0 0 134.2 202.2" style="enable-background:new 0 0 134.2 202.2;" xml:space="preserve">
<style type="text/css">
	.st0{fill:none;stroke:#CCCCCC;stroke-width:10;}
	.st1{fill:#1A171B;}
	.st2{fill:#999999;}
	.st3{fill:url(#SVGID_1_);}
	.st4{fill:url(#SVGID_2_);}
	.st5{fill:url(#SVGID_3_);}
	.st6{fill:#FFFFFF;stroke:#1A171B;stroke-width:0.98;}
	.st7{fill:#FFFFFF;stroke:#1A171B;stroke-width:0.98;stroke-linecap:round;stroke-linejoin:round;}
	.st8{fill:#FFFFFF;stroke:#1A171B;stroke-width:0.4;stroke-linecap:round;stroke-linejoin:round;}
	.st9{fill:none;stroke:#1A171B;stroke-width:0.98;stroke-linecap:round;stroke-linejoin:round;}
	.st10{fill:none;stroke:#1A171B;stroke-width:0.98;}
	.st11{fill:none;stroke:#1A171B;stroke-width:0.4;}
	.st12{fill:none;stroke:#1A171B;stroke-width:0.4;stroke-linecap:round;stroke-linejoin:round;}
	.st13{fill:#FFFFFF;stroke:#1A171B;stroke-width:0.8;stroke-linecap:round;stroke-linejoin:round;}
	.st14{fill:#C5C6C8;stroke:#1A171B;stroke-width:0.5;stroke-linecap:round;stroke-linejoin:round;}
	.st15{fill:none;stroke:#1A171B;stroke-width:0.5;stroke-linecap:round;stroke-linejoin:round;}
	.st16{fill:none;stroke:#1A171B;stroke-width:0.8;stroke-linecap:round;stroke-linejoin:round;}
</style>
<path class="st0" d="M47.9,69.9c7.3-4.1,15.7-6.5,24.7-6.5c9.1,0,17.6,2.4,25,6.7"/>
<g>
	<path class="st1" d="M69.1,81.8c-0.1-0.8-0.7-1.4-1.5-1.4c-1.6,0-2.1,2.2-2.1,3.4l0,0c0.6-0.9,1.4-1.2,2.5-1.2c1,0,1.9,0.4,2.6,1.2
		c0.6,0.7,0.9,1.6,0.9,2.5c0,2.3-1.6,4.1-3.9,4.1c-3.4,0-4.3-3-4.3-5.8c0-2.8,1.2-5.9,4.4-5.9c1.9,0,3.4,1.1,3.6,3.1H69.1z
		 M65.6,86.4c0,1,0.7,2.1,1.8,2.1c1.1,0,1.7-1,1.7-2c0-1.1-0.5-2.1-1.7-2.1C66.2,84.3,65.6,85.3,65.6,86.4z"/>
	<path class="st1" d="M76.2,78.7c2.2,0,4.1,1.4,4.1,5.8c0,4.5-1.9,5.9-4.1,5.9c-2.2,0-4.1-1.4-4.1-5.9C72.1,80.1,74,78.7,76.2,78.7z
		 M76.2,88.5c1.9,0,1.9-2.7,1.9-4c0-1.2,0-3.9-1.9-3.9c-1.8,0-1.8,2.7-1.8,3.9C74.4,85.7,74.4,88.5,76.2,88.5z"/>
	<path class="st1" d="M83.9,78.7c1.3,0,2.4,1,2.4,2.4c0,1.3-1,2.4-2.4,2.4c-1.3,0-2.4-1-2.4-2.4C81.5,79.7,82.5,78.7,83.9,78.7z
		 M83.9,82.5c0.7,0,1.3-0.6,1.3-1.4s-0.6-1.4-1.3-1.4s-1.3,0.6-1.3,1.4S83.2,82.5,83.9,82.5z"/>
</g>
<g>
	<polyline class="st2" points="84.3,136.5 84.3,151.9 90.3,151.9 74.3,171 74.3,171 58.3,151.9 64.4,151.9 64.4,136.5 	"/>
</g>
<linearGradient id="SVGID_1_" gradientUnits="userSpaceOnUse" x1="-960.3223" y1="677.8342" x2="-960.3223" y2="648.4807" gradientTransform="matrix(1 0 0 1 1035.75 -532.3967)">
	<stop  offset="0" style="stop-color:#FFFFFF;stop-opacity:0"/>
	<stop  offset="0.2761" style="stop-color:#FFFFFF"/>
	<stop  offset="0.7853" style="stop-color:#FFFFFF"/>
	<stop  offset="1" style="stop-color:#FFFFFF;stop-opacity:0"/>
</linearGradient>
<rect x="52.5" y="116.1" class="st3" width="45.8" height="29.4"/>
<g>
	<g>
		<polyline class="st2" points="18.9,37.8 14.4,30.4 11.5,32.2 13.5,18.4 13.5,18.4 26.7,22.8 23.8,24.6 28.3,31.9 		"/>
	</g>
	
		<linearGradient id="SVGID_2_" gradientUnits="userSpaceOnUse" x1="-1474.1216" y1="468.0611" x2="-1474.1216" y2="450.1527" gradientTransform="matrix(-0.8511 0.5251 -0.5251 -0.8511 -990.0538 1204.1235)">
		<stop  offset="0" style="stop-color:#FFFFFF;stop-opacity:0"/>
		<stop  offset="0.2761" style="stop-color:#FFFFFF"/>
		<stop  offset="0.7853" style="stop-color:#FFFFFF"/>
		<stop  offset="1" style="stop-color:#FFFFFF;stop-opacity:0"/>
	</linearGradient>
	<polygon class="st4" points="0,45.1 38.4,19.6 47,33.5 8.6,59 	"/>
</g>
<g>
	<g>
		<polyline class="st2" points="115.9,64.1 120.4,56.8 123.3,58.5 121.3,44.8 121.3,44.7 108.1,49.2 110.9,50.9 106.4,58.3 		"/>
	</g>
	
		<linearGradient id="SVGID_3_" gradientUnits="userSpaceOnUse" x1="-988.4937" y1="737.8546" x2="-988.4937" y2="720.1375" gradientTransform="matrix(0.8511 0.5251 0.5251 -0.8511 569.3428 1204.1235)">
		<stop  offset="0" style="stop-color:#FFFFFF;stop-opacity:0"/>
		<stop  offset="0.2761" style="stop-color:#FFFFFF"/>
		<stop  offset="0.7853" style="stop-color:#FFFFFF"/>
		<stop  offset="1" style="stop-color:#FFFFFF;stop-opacity:0"/>
	</linearGradient>
	<polygon class="st5" points="133.5,69.8 96.8,45.5 88.2,59.5 124.9,83.7 	"/>
</g>
<path class="st6" d="M65.1,124.8c3,6.7,5.1,8.7,5.9,8c0.7-0.5,2.1-1.1,2-1.2c-0.7-0.6-0.5-0.5-1.3-1.6c-4.7-6.5-10.1-24.9-10.1-24.9
	s-0.7,0.8-1.1,0.9c-0.4,0.1-0.7,0.2-1,0.2C59.1,106.2,62.2,118.1,65.1,124.8z"/>
<g>
	<g>
		<g>
			<g>
				<path class="st7" d="M81.3,148c0.3-1,0.3-1.4,0.3-2c0-0.3-0.7-2.3-0.7-2.3l-1.1,0.1c0,0,0.1,1.9-0.7,3.4 M80.8,144.3l-1,0.1
					 M79.1,147.2c0,0-0.2,0.4-0.7,1c0,0-0.5,0.7-1.8,1.4c0,0-0.7,0.4-2.1,0.7c0,0-1.8,0.5-2.8,0c0,0-0.9-0.4-1-1.8l-0.1-2.4
					l-0.1-3.3c0,0,0-3.1,0.1-4.4c0,0,0.1-2.5,0.2-3.5c0,0,0.1-1.5,0.3-2.1c0,0,0.3-0.8,1.2-1c0,0,0.8-0.2,2,0.2c0,0,1.7,0.5,2.3,1
					c0,0,0.8,0.4,1.4,1.5L78,135c0,0.2,0,0.5,0,0.7c0,0.2,0.2,0.4,0.6,0.3c0.4,0,0.9,0,1.2,0c0.3,0,0.6-0.3,0.6-0.8l-0.1-1.4
					c0,0,0-0.3-0.7-1.3c0,0-0.5-0.8-1.8-1.7c0,0-0.8-0.6-2.4-1.1c0,0-1.7-0.7-3.1-0.4c0,0-1.1,0.1-2.1,0.9c0,0-1,0.8-1.4,2
					c0,0-0.4,1-0.5,2.6l-0.1,1.7c0,0-0.1,2-0.1,3l0,1.9l0,3.2l0.1,2.1c0,0,0.1,2.8,0.6,3.6c0,0,0.4,1.1,1.2,1.7c0,0,1,0.8,2.1,0.9
					c0,0,1.3,0.2,2.6-0.2c0,0,1.3-0.2,2.6-0.8c0,0,1.3-0.6,2.2-1.5c0,0,1.4-1.3,1.8-2.5"/>
			</g>
		</g>
	</g>
	<path class="st8" d="M79.7,145.4c0,0.3-0.3,0.8,0,1c0.3,0.1,0.6,0.1,0.9,0c0.3,0,0.9-0.3,0.9-0.8"/>
	<line class="st8" x1="81.3" y1="145.7" x2="79.6" y2="145.9"/>
	<path class="st9" d="M78.8,130.3c-0.5-0.5-1.1-0.6-2.2,0.6c-0.1,0.1-0.1,0.3-0.1,0.4"/>
	<path class="st7" d="M78.5,145c0,0,0,0.3,0.6,0.3c0.2,0,0.5,0,1.2-0.1c0.7-0.1,0.7-0.5,0.7-0.6c0,0,0-0.2,0-0.4
		c0-0.2-0.2-0.2-0.2-0.6c0-0.6,0.1-0.5,0.1-0.8c-0.2-3.1-0.6-9.2-0.6-9.2c0-0.4-0.5-0.5-1.1-0.5c-0.6,0.1-1,0-1,0.5
		c0,0.6,0.1,1.6,0.1,1.6s0.1,0.7-0.1,0.7L78.5,145z"/>
	<g>
		<g>
			<path class="st7" d="M80.8,143.7c0.5-0.1,0.6-0.4,0.6-0.4l0-0.7l0.1-0.1c0,0-0.2-3.6-0.2-3.9c0-0.3-0.1-0.2-0.1-0.2s0-0.3,0-0.6
				c0-0.2-0.1-0.3-0.2-0.4l-0.3,0c-0.7,0.1-1.9,0.2-2.7,0.2c-0.1,0-0.4,0-0.4,0.5c0,0.5,0,0.6,0,0.6l-0.1,0l0.2,4l0.1,0.1l0,0.6
				c0,0,0,0.3,0.5,0.3C79,143.9,80.2,143.8,80.8,143.7z"/>
			<path class="st8" d="M77.8,142.9c1,0,2.6,0,3.6-0.2"/>
		</g>
		<path class="st8" d="M77.6,138.7c0.8,0,2.6,0,3.6-0.3"/>
	</g>
	<path class="st7" d="M78.7,134.6c0-0.2,0.2-0.4,0.4-0.4c0.2,0,0.4,0.2,0.4,0.4c0,0.2-0.2,0.4-0.4,0.4
		C78.9,135,78.7,134.8,78.7,134.6"/>
</g>
<polygon class="st10" points="22.9,33.1 23.1,31 24.9,30.1 26.7,31.2 26.6,33.3 24.7,34.3 "/>
<ellipse transform="matrix(0.2061 -0.9785 0.9785 0.2061 -11.7256 49.7653)" class="st11" cx="24.8" cy="32.1" rx="1.2" ry="1.2"/>
<path class="st10" d="M22.7,41c0,0,0.9-0.9,2.3-3.1"/>
<path class="st10" d="M20,30.3c0,0,4.2-0.9,5.1-0.8c0.9,0.1,1.7,0.5,2,1.1c0.3,0.6,1,1.6-1,5.4c-0.2,0.3-0.3,0.6-0.5,0.9"/>
<path class="st10" d="M20.8,33.1c0,0,1,0.1,1.5,0.7c0.4,0.4,0.8,0.7,0.6,2.1"/>
<g>
	<g>
		<g>
			<g>
				<path class="st7" d="M37.4,48.5c-0.2-1-0.4-1.4-0.7-1.9C36.6,46.3,35,45,35,45l-0.9,0.6c0,0,1,1.6,1.1,3.3 M35.1,45.5l-0.8,0.6
					 M35.1,48.9c0,0,0,0.4-0.1,1.2c0,0-0.1,0.9-0.9,2.1c0,0-0.4,0.7-1.4,1.7c0,0-1.3,1.3-2.4,1.4c0,0-1,0.1-1.7-1l-1.3-2l-1.7-2.8
					c0,0-1.5-2.6-2.1-3.9c0,0-1.2-2.2-1.6-3.1c0,0-0.6-1.3-0.8-1.9c0,0-0.2-0.8,0.5-1.5c0,0,0.6-0.6,1.8-0.8c0,0,1.7-0.4,2.5-0.3
					c0,0,0.9,0,2,0.6l0.3,0.3c0.1,0.2,0.3,0.4,0.4,0.6c0.1,0.2,0.3,0.2,0.7,0c0.4-0.2,0.8-0.4,1-0.6c0.2-0.1,0.4-0.5,0.1-0.9
					l-0.8-1.1c0,0-0.1-0.2-1.3-0.8c0,0-0.8-0.4-2.4-0.6c0,0-1-0.1-2.6,0.2c0,0-1.8,0.2-2.9,1.1c0,0-0.9,0.6-1.4,1.8
					c0,0-0.5,1.2-0.2,2.4c0,0,0.1,1,0.8,2.5l0.7,1.5c0,0,0.9,1.8,1.4,2.6l0.9,1.7l1.6,2.7l1.1,1.8c0,0,1.4,2.4,2.3,2.8
					c0,0,0.9,0.7,1.9,0.8c0,0,1.2,0.3,2.3-0.2c0,0,1.2-0.4,2.2-1.4c0,0,1-0.8,1.8-2c0,0,0.8-1.1,1.2-2.4c0,0,0.5-1.8,0.3-3"/>
			</g>
		</g>
	</g>
	<path class="st8" d="M34.8,47c0.1,0.3,0.1,0.9,0.5,0.9c0.3,0,0.6-0.3,0.8-0.4c0.2-0.2,0.6-0.7,0.4-1.1"/>
	<line class="st8" x1="36.2" y1="46.5" x2="34.9" y2="47.5"/>
	<path class="st12" d="M29.1,36.6c-0.5-0.5-1.1-0.6-2.2,0.6c-0.1,0.1-0.1,0.3-0.1,0.4"/>
	<path class="st7" d="M33.5,47.3c0,0,0.2,0.2,0.6,0c0.2-0.1,0.4-0.2,0.9-0.7c0.5-0.5,0.3-0.8,0.3-0.8c0,0-0.1-0.1-0.2-0.3
		c-0.1-0.1-0.2-0.1-0.5-0.5c-0.3-0.5-0.1-0.5-0.3-0.7c-1.7-2.6-5.1-7.7-5.1-7.7c-0.2-0.3-0.7-0.2-1.2,0.2c-0.5,0.4-0.8,0.5-0.6,1
		c0.3,0.5,0.8,1.3,0.8,1.3s0.4,0.5,0.3,0.6L33.5,47.3z"/>
	<g>
		<g>
			<path class="st7" d="M34.9,45c0.4-0.3,0.3-0.6,0.3-0.6l-0.3-0.6l0-0.1c0,0-1.9-3-2.1-3.3c-0.1-0.2-0.2-0.1-0.2-0.1
				s-0.2-0.3-0.3-0.5c-0.1-0.2-0.3-0.2-0.4-0.2l-0.3,0.1c-0.6,0.4-1.5,1.1-2.2,1.5c-0.1,0-0.4,0.2-0.1,0.6c0.2,0.4,0.3,0.5,0.3,0.5
				l0,0.1l2.1,3.4l0.1,0l0.3,0.5c0,0,0.2,0.3,0.6,0C33.4,46,34.4,45.4,34.9,45z"/>
			<path class="st8" d="M31.8,45.8c0.9-0.4,2.2-1.3,3-2"/>
		</g>
		<path class="st8" d="M29.7,42.3c0.7-0.4,2.2-1.3,3-2"/>
	</g>
	<path class="st7" d="M28.6,38.1c-0.1-0.2,0-0.4,0.2-0.5c0.2-0.1,0.4,0,0.5,0.2c0.1,0.2,0,0.4-0.2,0.5
		C28.9,38.4,28.7,38.3,28.6,38.1"/>
</g>
<path class="st6" d="M57.6,95.7c0.2-0.2,2.5,0.3,3.5,0.6c1,0.3,1.3,1,1.5,1.4c0.2,0.4,0.4,1.5,0.4,1.5s0.8,0.6,1.2,1.1
	c0.3,0.5,0.7,1.3-0.1,2.9c-0.8,1.6-1,2.5-1.4,2.8c-0.4,0.3-2.1,1.1-3.2,0.7c-1.1-0.3-2.1-0.8-2.9-2.5c-0.8-1.7-1.4-3-1.8-3.8
	c-0.5-0.8-1-2-0.1-3.6l0.5-0.5c0,0,0.8,1.2,1.6,2.3c0.6,0.8,1.4,1.9,1.6,2.2l0.5,0.7C58.7,101.4,58.9,97.4,57.6,95.7"/>
<path class="st9" d="M54.7,100.4c-0.5-0.8-1-2-0.1-3.6l0.5-0.6c0,0,0.7,1.1,1.5,2.2c0.6,0.9,1.1,1.5,1.6,2.2l0.5,0.7
	c0,0,0.2-4-1.1-5.7"/>
<path class="st9" d="M59.2,101.5c0,0,0.2-4.2-1.4-5.5"/>
<path class="st9" d="M62.9,99.1c0,0,0.1,0.9-0.2,2.1"/>
<path class="st12" d="M64.1,100.3c0,0,1,1.5-1.8,2.2c-2.1,0.5-3.9-0.1-5.5-0.9c-1.5-0.8-3.5-2.6-2.5-4.5"/>
<path class="st9" d="M63.5,99.6c0,0,0.9,0.9-0.1,1.4c-0.9,0.5-2.5,1.6-5.2,0.4c-2.7-1.2-4.1-3-3-4.6"/>
<path class="st6" d="M69.2,121.9c5.3,9.9,3.4,10.2,3.4,10.2c-1.4,0.6-1,1.3-0.9,1.3c1.6,0.1,2.4-0.6,2.7-0.9c0.9-0.6,1.8-2,1.1-4.3
	c-0.2-0.7-1.1-4.1-4.2-9.8c-3.6-6.7-8.4-12.9-8.4-12.9s-0.6,0.6-1,0.8c-0.4,0.2-0.6,0.3-1,0.3C60.8,106.6,65.3,114.7,69.2,121.9z"/>
<path class="st6" d="M58.8,101.2C53.4,96.5,42.2,76.8,38.6,71c-3.1-5.1-4.7-7.8-7.7-13.4c0-0.1,0.9-0.2,2-0.9c0.5-0.3,1-0.7,1.1-0.8
	c0,0,5.4,9.5,17.1,31c0,0-12-24.5-17.6-32c-0.1-0.1-0.4-0.4-0.7-0.5c0,0-0.3-0.2-0.6,0c-0.2,0.1-0.4,0.3-1,0.6
	c-0.1,0-0.2,0.1-0.2,0.1c-0.2,0.1-0.2,0-0.1-0.2c2.6-4.2,5.1-1.9,5.5-1.6c0.8,0.7,2.1,2.3,3.5,4.7c10.5,18,17.6,36.8,17.8,37.2
	c0,0,0.3,1.4,0.4,1.6c0.1,0.2,0.4,1.4,0.4,2.1C58.9,101,58.8,101.2,58.8,101.2z"/>
<path class="st7" d="M54.2,93.2"/>
<path class="st6" d="M19.4,30.8c0,0,1.9,7.9,2.2,9c0.3,1.1,0.4,1.5,0.7,1.5c0.3-0.1,0.4-0.1,0.3-0.6c-0.1-0.5-1.9-7.9-2.2-9.1
	c-0.3-1.2-0.2-1.4-0.6-1.3C19.5,30.4,19.3,30.5,19.4,30.8z"/>
<path class="st9" d="M58.8,101.2c0,0-1.1-0.8-7.6-14.4"/>
<path class="st6" d="M72.7,129.4l11.7-21.1l14-23.7c0,0,0.5-0.9,0.9-1.4c0.4-0.5,0.8-0.9,0.8-0.9l0.4-1.2c0,0,0.5,0.1,1.2,0.2
	c0,0,0.5-0.3-0.7-0.6c-1.8-0.5-3.5-0.3-5.4,2.6c-6,9.6-8.5,13.2-14.5,23.7c-12,21.3-10.7,23-10.4,22.8c0.3-0.1,0.6-0.2,1.1-0.3
	L72.7,129.4z"/>
<polygon class="st10" points="110.1,60.9 110.5,58.9 112.5,58.2 114.1,59.5 113.7,61.6 111.7,62.3 "/>
<path class="st11" d="M110.9,59.8c0.2-0.6,0.9-0.9,1.6-0.7c0.6,0.2,1,0.9,0.7,1.5c-0.2,0.6-0.9,1-1.6,0.7
	C111,61.1,110.7,60.4,110.9,59.8z"/>
<path class="st10" d="M108.4,68.6c0.2-0.1,0.4-0.2,0.7-0.3c0,0,0.3-0.2,0.3-0.2c0,0,0.7-0.5,1.2-1.1c0,0,0.6-0.6,0.9-0.8"/>
<path class="st10" d="M107.5,57.8c0,0,4.3-0.4,5.2-0.2c0.9,0.2,1.6,0.7,1.9,1.3c0.3,0.6,0.7,1.7-1.8,5.2l-0.1,0.1"/>
<path class="st10" d="M107.9,60.6c0,0,1,0.2,1.5,0.8c0.3,0.4,0.7,0.7,0.4,1.9"/>
<g>
	<g>
		<g>
			<g>
				<path class="st7" d="M98.1,77.3c-0.1-1.6,0.8-3.2,0.8-3.2l-1-0.5c0,0-1.6,1.5-1.7,1.8c-0.2,0.5-0.4,0.9-0.6,1.9 M98.7,74.6
					l-0.9-0.4 M95.7,77.3c-0.1,1.2,0.6,2.8,0.6,2.8c0.5,1.1,1.5,2,1.5,2c1,1,2.1,1.6,2.1,1.6c1.1,0.8,2.4,1,2.4,1
					c1.2,0.3,2.4-0.1,2.4-0.1c1-0.3,1.9-1.1,1.9-1.1c0.9-0.6,2.2-3,2.2-3l1-1.8l1.4-2.8l0.8-1.7c0.4-0.9,1.2-2.7,1.2-2.7L114,70
					c0.6-1.4,0.7-2.4,0.7-2.4c0.2-1.2-0.4-2.2-0.4-2.2c-0.6-1-1.6-1.4-1.6-1.4c-1.2-0.7-3.2-0.6-3.2-0.6c-1.8-0.1-2.8,0.2-2.8,0.2
					c-1.7,0.4-2.4,0.9-2.4,0.9c-1.2,0.7-1.3,0.9-1.3,0.9l-0.7,1.2c-0.2,0.4,0,0.8,0.2,0.9c0.2,0.1,0.7,0.2,1.1,0.4
					c0.4,0.1,0.6,0.1,0.7-0.1c0.1-0.2,0.2-0.4,0.3-0.6l0.3-0.4c1-0.8,2-0.9,2-0.9c0.8-0.2,2.7-0.1,2.7-0.1c1.3,0,2,0.5,2,0.5
					c0.8,0.5,0.7,1.3,0.7,1.3c-0.1,0.6-0.6,1.9-0.6,1.9c-0.3,1-1.4,3.2-1.4,3.2c-0.5,1.3-1.9,3.9-1.9,3.9l-1.5,2.8l-1.2,2.1
					c-0.7,1.2-1.8,1.2-1.8,1.2c-1.2,0.1-2.7-0.9-2.7-0.9c-1.2-0.7-1.7-1.3-1.7-1.3c-1-1-1.1-1.8-1.1-1.8c-0.2-0.8-0.2-1.1-0.2-1.1"
					/>
			</g>
		</g>
	</g>
	<path class="st8" d="M98.3,75.6c-0.1,0.3,0,0.8-0.5,0.9c-0.3,0-0.6-0.2-0.9-0.3c-0.2-0.1-0.7-0.6-0.5-1"/>
	<line class="st8" x1="96.8" y1="75.3" x2="98.2" y2="76"/>
	<path class="st12" d="M103.4,65c0.5-0.5,1.1-0.7,2.4,0.2c0.1,0.1,0.2,0.2,0.1,0.3"/>
	<path class="st7" d="M99.7,75.6c0,0-0.2,0.2-0.7,0.1c-0.2-0.1-0.4-0.2-1-0.5c-0.6-0.3-0.4-0.7-0.4-0.7c0,0,0.1-0.1,0.2-0.4
		c0.1-0.1,0.2-0.1,0.4-0.5c0.3-0.5,0.1-0.4,0.3-0.7c1.6-2.7,4.7-7.9,4.7-7.9c0.2-0.4,0.7-0.3,1.3,0c0.5,0.3,0.9,0.3,0.7,0.8
		c-0.2,0.5-0.8,1.4-0.8,1.4s-0.4,0.6-0.2,0.6L99.7,75.6z"/>
	<g>
		<g>
			<path class="st7" d="M98.1,73.6c-0.5-0.3-0.4-0.5-0.4-0.5l0.3-0.6l0-0.1c0,0,1.8-3.1,1.9-3.4c0.1-0.2,0.2-0.1,0.2-0.1
				s0.2-0.3,0.3-0.5c0.1-0.2,0.3-0.3,0.4-0.3l0.3,0.1c0.7,0.3,1.7,0.8,2.5,1c0.1,0,0.4,0.2,0.2,0.6c-0.2,0.4-0.3,0.5-0.3,0.5l0,0.1
				l-1.9,3.5l-0.1,0l-0.3,0.5c0,0-0.1,0.3-0.7,0.1C99.7,74.4,98.6,74,98.1,73.6z"/>
			<path class="st8" d="M101.3,74c-0.9-0.3-2.4-0.9-3.4-1.4"/>
		</g>
		<path class="st8" d="M103.3,70.4c-0.8-0.3-2.5-0.9-3.4-1.4"/>
	</g>
	<path class="st7" d="M104.1,66.3c0.1-0.2,0-0.4-0.2-0.4c-0.2-0.1-0.4,0-0.5,0.2c-0.1,0.2,0,0.4,0.2,0.5
		C103.8,66.6,104,66.5,104.1,66.3"/>
</g>
<path class="st6" d="M106.8,58.2c0,0,0.9,8,1,9.1c0.1,1.1,0.2,1.5,0.5,1.5c0.3,0,0.4,0,0.4-0.5c0-0.5-0.8-8-1-9.2
	c-0.1-1.2-0.1-1.4-0.4-1.4C107,57.8,106.8,57.9,106.8,58.2z"/>
<path class="st6" d="M73.4,132.9c1,0,2.9-0.5,5-2.8c6.1-6.6,21.3-36.5,23.2-40.9c1.1-2.5,1.8-4.7,1.8-4.7c0-0.1,0.4-2.1-0.4-3
	c-0.4-0.4-1.4-1.3-3.1-1.3c-0.6,0,1.2,0.3,0.7,2.5c-0.1,0.4-0.8,2.3-2.1,5.3C96.4,93,76,129.6,75.9,130c0,0.2-0.1,0.3-0.1,0.5
	c-0.2,0.6-0.5,1.2-1,1.6C73.9,132.8,73.4,132.9,73.4,132.9z"/>
<g>
	<path class="st1" d="M9.6,2.2H5L4.5,4.8l0,0c0.6-0.6,1.3-0.9,2.2-0.9c2.2,0,3.5,1.7,3.5,3.8c0,2.3-1.9,4.1-4.2,4
		c-2.2,0-4.1-1.2-4.2-3.6h2.3C4.3,9.2,5,9.9,6,9.9c1.2,0,1.9-1,1.9-2.2c0-1.2-0.7-2.1-1.9-2.1c-0.8,0-1.3,0.3-1.7,0.9h-2l1.1-6.2
		h6.3V2.2z"/>
	<path class="st1" d="M15,0.1c2.8,0,3.7,1.9,3.7,3c0,1.1-0.6,2-1.6,2.4v0c1.3,0.3,2.1,1.3,2.1,2.7c0,2.4-2.1,3.5-4.2,3.5
		c-2.2,0-4.3-1.1-4.3-3.5c0-1.4,0.8-2.4,2.1-2.8v0c-1.1-0.3-1.6-1.2-1.6-2.3C11.2,1.2,13.1,0.1,15,0.1z M15,10.1
		c1.1,0,1.9-0.8,1.9-1.9c0-1.1-0.9-1.8-1.9-1.8c-1.1,0-2,0.6-2,1.8S13.9,10.1,15,10.1z M15,4.9c0.9,0,1.7-0.5,1.7-1.5
		c0-0.6-0.3-1.6-1.7-1.6c-0.9,0-1.7,0.5-1.7,1.6C13.2,4.4,14,4.9,15,4.9z"/>
	<path class="st1" d="M27.8,0.1c2,0,2.6,1.5,2.6,3.2c0,1.7-0.8,3-2.7,3c-2,0-2.6-1.3-2.6-3.1C25,1.6,25.9,0.1,27.8,0.1z M27.7,5.2
		c1,0,1.1-1.2,1.1-1.8c0-0.6,0-2-1-2c-1,0-1.1,1.3-1.1,2C26.7,4,26.7,5.2,27.7,5.2z M34.5,0h1.4l-6.6,11.9h-1.4L34.5,0z M36,5.5
		c2,0,2.6,1.4,2.6,3.2c0,1.7-0.8,3.1-2.7,3.1c-2,0-2.6-1.4-2.6-3.2C33.3,6.9,34.1,5.5,36,5.5z M36,10.6c1,0,1.1-1.2,1.1-1.9
		c0-0.6,0-1.9-1-1.9c-1,0-1.1,1.2-1.1,1.9C34.9,9.3,34.9,10.6,36,10.6z"/>
</g>
<g>
	<path class="st1" d="M105.2,26.1h-4.6l-0.4,2.5l0,0c0.6-0.6,1.3-0.9,2.2-0.9c2.2,0,3.5,1.7,3.5,3.8c0,2.3-1.9,4.1-4.2,4
		c-2.2,0-4.1-1.2-4.2-3.6h2.3c0.1,1,0.8,1.7,1.8,1.7c1.2,0,1.9-1,1.9-2.2c0-1.2-0.7-2.1-1.9-2.1c-0.8,0-1.3,0.3-1.7,0.9h-2l1.1-6.2
		h6.3V26.1z"/>
	<path class="st1" d="M110.5,24c2.8,0,3.7,1.9,3.7,3c0,1.1-0.6,2-1.6,2.4v0c1.3,0.3,2.1,1.3,2.1,2.7c0,2.4-2.1,3.5-4.2,3.5
		c-2.2,0-4.3-1.1-4.3-3.5c0-1.4,0.8-2.4,2.1-2.8v0c-1.1-0.3-1.6-1.2-1.6-2.3C106.7,25.1,108.7,24,110.5,24z M110.5,34
		c1.1,0,1.9-0.8,1.9-1.9c0-1.1-0.9-1.8-1.9-1.8c-1.1,0-2,0.6-2,1.8S109.4,34,110.5,34z M110.5,28.8c0.9,0,1.7-0.5,1.7-1.5
		c0-0.6-0.3-1.6-1.7-1.6c-0.9,0-1.7,0.5-1.7,1.6C108.8,28.3,109.6,28.8,110.5,28.8z"/>
	<path class="st1" d="M123.3,24c2,0,2.6,1.5,2.6,3.2c0,1.7-0.8,3-2.7,3c-2,0-2.6-1.3-2.6-3.1C120.6,25.5,121.4,24,123.3,24z
		 M123.3,29.1c1,0,1.1-1.2,1.1-1.8c0-0.6,0-2-1-2c-1,0-1.1,1.3-1.1,2C122.2,27.9,122.2,29.1,123.3,29.1z M130.1,23.9h1.4l-6.6,11.9
		h-1.4L130.1,23.9z M131.6,29.4c2,0,2.6,1.4,2.6,3.2c0,1.7-0.8,3.1-2.7,3.1c-2,0-2.6-1.4-2.6-3.2C128.9,30.8,129.7,29.4,131.6,29.4z
		 M131.5,34.5c1,0,1.1-1.2,1.1-1.9c0-0.6,0-1.9-1-1.9c-1,0-1.1,1.2-1.1,1.9C130.5,33.2,130.5,34.5,131.5,34.5z"/>
</g>
<g>
	<path class="st1" d="M65.6,200.6h-2.3v-7.3h-2.8v-1.7c1.6,0,3-0.5,3.3-2.2h1.8V200.6z"/>
	<path class="st1" d="M72.6,189.2c2.2,0,4.1,1.4,4.1,5.8c0,4.5-1.9,5.9-4.1,5.9c-2.2,0-4.1-1.4-4.1-5.9
		C68.5,190.6,70.4,189.2,72.6,189.2z M72.6,199c1.9,0,1.9-2.7,1.9-4c0-1.2,0-3.9-1.9-3.9c-1.8,0-1.8,2.7-1.8,3.9
		C70.8,196.3,70.8,199,72.6,199z"/>
	<path class="st1" d="M81.5,189.2c2.2,0,4.1,1.4,4.1,5.8c0,4.5-1.9,5.9-4.1,5.9c-2.2,0-4.1-1.4-4.1-5.9
		C77.4,190.6,79.3,189.2,81.5,189.2z M81.5,199c1.9,0,1.9-2.7,1.9-4c0-1.2,0-3.9-1.9-3.9c-1.8,0-1.8,2.7-1.8,3.9
		C79.7,196.3,79.7,199,81.5,199z"/>
	<path class="st1" d="M94.4,189.2c2,0,2.6,1.5,2.6,3.2c0,1.7-0.8,3-2.7,3c-2,0-2.6-1.3-2.6-3.1C91.6,190.6,92.5,189.2,94.4,189.2z
		 M94.3,194.3c1,0,1.1-1.2,1.1-1.8c0-0.6,0-2-1-2c-1,0-1.1,1.3-1.1,2C93.3,193.1,93.3,194.3,94.3,194.3z M101.1,189.1h1.4L95.9,201
		h-1.4L101.1,189.1z M102.6,194.6c2,0,2.6,1.4,2.6,3.2c0,1.7-0.8,3.1-2.7,3.1c-2,0-2.6-1.4-2.6-3.2
		C99.9,196,100.7,194.6,102.6,194.6z M102.6,199.7c1,0,1.1-1.2,1.1-1.9c0-0.6,0-1.9-1-1.9c-1,0-1.1,1.2-1.1,1.9
		C101.5,198.4,101.5,199.7,102.6,199.7z"/>
</g>
<g>
	<polygon class="st13" points="37.1,192.5 40.2,190.8 46.3,190.8 49.3,192.5 51.7,200.1 47.5,201.8 39,201.8 34.7,200.1 	"/>
	<line class="st14" x1="40.2" y1="194.2" x2="39" y2="201.8"/>
	<line class="st14" x1="46.2" y1="194.5" x2="47.5" y2="201.8"/>
	<polyline class="st15" points="49.3,192.5 46.3,194.2 40.2,194.2 37.1,192.5 	"/>
	<circle class="st16" cx="43.4" cy="189.6" r="2.7"/>
</g>
</svg>
