<?xml version="1.0" encoding="utf-8"?>
<!-- Generator: Adobe Illustrator 21.0.0, SVG Export Plug-In . SVG Version: 6.00 Build 0)  -->
<svg version="1.1" id="Calque_1" xmlns="http://www.w3.org/2000/svg" xmlns:xlink="http://www.w3.org/1999/xlink" x="0px" y="0px"
	 viewBox="0 0 94.9 213" style="enable-background:new 0 0 94.9 213;" xml:space="preserve">
<style type="text/css">
	.st0{fill:#999999;}
	.st1{fill:url(#SVGID_1_);}
	.st2{fill:url(#SVGID_2_);}
	.st3{fill:url(#SVGID_3_);}
	.st4{fill:#FFFFFF;stroke:#1A171B;stroke-width:0.98;}
	.st5{fill:#FFFFFF;stroke:#1A171B;stroke-width:0.98;stroke-linecap:round;stroke-linejoin:round;}
	.st6{fill:#FFFFFF;stroke:#1A171B;stroke-width:0.4;stroke-linecap:round;stroke-linejoin:round;}
	.st7{fill:none;stroke:#1A171B;stroke-width:0.98;}
	.st8{fill:none;stroke:#1A171B;stroke-width:0.4;}
	.st9{fill:none;stroke:#1A171B;stroke-width:0.4;stroke-linecap:round;stroke-linejoin:round;}
	.st10{fill:none;stroke:#1A171B;stroke-width:0.98;stroke-linecap:round;stroke-linejoin:round;}
	.st11{fill:#1A171B;}
	.st12{fill:#FFFFFF;stroke:#1A171B;stroke-width:0.8;stroke-linecap:round;stroke-linejoin:round;}
	.st13{fill:#C5C6C8;stroke:#1A171B;stroke-width:0.5;stroke-linecap:round;stroke-linejoin:round;}
	.st14{fill:none;stroke:#1A171B;stroke-width:0.5;stroke-linecap:round;stroke-linejoin:round;}
	.st15{fill:none;stroke:#1A171B;stroke-width:0.8;stroke-linecap:round;stroke-linejoin:round;}
</style>
<g>
	<polyline class="st0" points="59.9,147.2 59.9,162.7 65.9,162.7 49.9,181.8 49.9,181.8 33.9,162.7 40,162.7 40,147.2 	"/>
</g>
<linearGradient id="SVGID_1_" gradientUnits="userSpaceOnUse" x1="-984.7173" y1="688.6193" x2="-984.7173" y2="659.2658" gradientTransform="matrix(1 0 0 1 1035.75 -532.3967)">
	<stop  offset="0" style="stop-color:#FFFFFF;stop-opacity:0"/>
	<stop  offset="0.2761" style="stop-color:#FFFFFF"/>
	<stop  offset="0.7853" style="stop-color:#FFFFFF"/>
	<stop  offset="1" style="stop-color:#FFFFFF;stop-opacity:0"/>
</linearGradient>
<rect x="28.1" y="126.9" class="st1" width="45.8" height="29.4"/>
<g>
	<g>
		<polyline class="st0" points="24.3,36.6 22.1,28.3 18.8,29.1 24.7,16.5 24.7,16.5 36.1,24.6 32.8,25.4 35,33.8 		"/>
	</g>
	
		<linearGradient id="SVGID_2_" gradientUnits="userSpaceOnUse" x1="-1133.3843" y1="523.777" x2="-1133.3843" y2="507.4008" gradientTransform="matrix(-1.7476 0.4623 -0.2558 -0.9668 -1818.9462 1060.8296)">
		<stop  offset="0" style="stop-color:#FFFFFF;stop-opacity:0"/>
		<stop  offset="0.2761" style="stop-color:#FFFFFF"/>
		<stop  offset="0.7853" style="stop-color:#FFFFFF"/>
		<stop  offset="1" style="stop-color:#FFFFFF;stop-opacity:0"/>
	</linearGradient>
	<polygon class="st2" points="5.5,36.4 50.1,24.6 54.3,40.4 9.7,52.2 	"/>
</g>
<g>
	<g>
		<polyline class="st0" points="74.1,67.1 76.7,58.9 79.9,60 74.7,47.1 74.7,47.1 62.9,54.5 66.1,55.5 63.5,63.7 		"/>
	</g>
	
		<linearGradient id="SVGID_3_" gradientUnits="userSpaceOnUse" x1="-960.1992" y1="743.2321" x2="-960.1992" y2="726.5577" gradientTransform="matrix(0.9518 0.3068 0.3068 -0.9518 757.3585 1063.4156)">
		<stop  offset="0" style="stop-color:#FFFFFF;stop-opacity:0"/>
		<stop  offset="0.2761" style="stop-color:#FFFFFF"/>
		<stop  offset="0.7853" style="stop-color:#FFFFFF"/>
		<stop  offset="1" style="stop-color:#FFFFFF;stop-opacity:0"/>
	</linearGradient>
	<polygon class="st3" points="93.3,68.5 49.5,54.7 44.5,70.2 88.3,84 	"/>
</g>
<path class="st4" d="M43.3,133.3c0.9,7.3,2.4,9.8,3.3,9.4c0.9-0.3,2.3-0.4,2.2-0.6c-0.5-0.7-0.3-0.6-0.8-1.9
	c-2.7-7.6-2.5-26.8-2.5-26.8s-0.9,0.5-1.3,0.5c-0.4,0-0.7,0-1-0.1C42.9,113.8,42.4,126,43.3,133.3z"/>
<g>
	<g>
		<g>
			<g>
				<path class="st5" d="M56.9,158.8c0.3-1,0.3-1.4,0.3-2c0-0.3-0.7-2.3-0.7-2.3l-1.1,0.1c0,0,0.1,1.9-0.7,3.4 M56.4,155.1l-1,0.1
					 M54.7,158c0,0-0.2,0.4-0.7,1c0,0-0.5,0.7-1.8,1.4c0,0-0.7,0.4-2.1,0.7c0,0-1.8,0.5-2.8,0c0,0-0.9-0.4-1-1.8l-0.1-2.4l-0.1-3.3
					c0,0,0-3.1,0.1-4.4c0,0,0.1-2.5,0.2-3.5c0,0,0.1-1.5,0.3-2.1c0,0,0.3-0.8,1.2-1c0,0,0.8-0.2,2,0.2c0,0,1.7,0.5,2.3,1
					c0,0,0.8,0.4,1.4,1.5l0.1,0.4c0,0.2,0,0.5,0,0.7c0,0.2,0.2,0.4,0.6,0.3c0.4,0,0.9,0,1.2,0c0.2,0,0.6-0.3,0.6-0.8l-0.1-1.4
					c0,0,0-0.3-0.7-1.3c0,0-0.5-0.8-1.8-1.7c0,0-0.8-0.6-2.4-1.1c0,0-1.7-0.7-3.1-0.4c0,0-1.1,0.1-2.1,0.9c0,0-1,0.8-1.4,2
					c0,0-0.4,1-0.5,2.6l-0.1,1.7c0,0-0.1,2-0.1,3l0,1.9l0,3.2l0.1,2.1c0,0,0.1,2.8,0.6,3.6c0,0,0.4,1.1,1.2,1.7c0,0,1,0.8,2.1,0.9
					c0,0,1.3,0.2,2.6-0.2c0,0,1.3-0.2,2.6-0.8c0,0,1.3-0.6,2.2-1.5c0,0,1.4-1.3,1.8-2.5"/>
			</g>
		</g>
	</g>
	<path class="st6" d="M55.3,156.2c0,0.3-0.3,0.8,0,1c0.3,0.1,0.6,0.1,0.9,0c0.3,0,0.9-0.3,0.9-0.8"/>
	<line class="st6" x1="56.9" y1="156.5" x2="55.2" y2="156.7"/>
	<path class="st5" d="M54.1,155.8c0,0,0,0.3,0.6,0.3c0.2,0,0.5,0,1.2-0.1c0.7-0.1,0.7-0.5,0.7-0.6c0,0,0-0.2,0-0.4
		c0-0.2-0.2-0.2-0.2-0.6c0-0.6,0.1-0.5,0.1-0.8c-0.2-3.1-0.6-9.2-0.6-9.2c0-0.4-0.5-0.5-1.1-0.5c-0.6,0.1-1,0-1,0.5
		c0,0.6,0.1,1.6,0.1,1.6s0.1,0.7-0.1,0.7L54.1,155.8z"/>
	<g>
		<g>
			<path class="st5" d="M56.4,154.5c0.5-0.1,0.6-0.4,0.6-0.4l0-0.7l0.1-0.1c0,0-0.2-3.6-0.2-3.9c0-0.3-0.1-0.2-0.1-0.2s0-0.3,0-0.6
				c0-0.2-0.1-0.3-0.2-0.4l-0.3,0c-0.7,0.1-1.9,0.2-2.7,0.2c-0.1,0-0.4,0-0.4,0.5c0,0.5,0,0.6,0,0.6l-0.1,0l0.2,4l0.1,0.1l0,0.6
				c0,0,0,0.3,0.5,0.3C54.6,154.6,55.8,154.6,56.4,154.5z"/>
			<path class="st6" d="M53.4,153.7c1,0,2.6,0,3.6-0.2"/>
		</g>
		<path class="st6" d="M53.2,149.5c0.8,0,2.6,0,3.6-0.3"/>
	</g>
	<path class="st5" d="M54.3,145.4c0-0.2,0.2-0.4,0.4-0.4c0.2,0,0.4,0.2,0.4,0.4c0,0.2-0.2,0.4-0.4,0.4
		C54.5,145.8,54.3,145.6,54.3,145.4"/>
</g>
<polygon class="st7" points="29.5,33.3 30.2,31.4 32.3,31 33.6,32.6 32.9,34.6 30.9,35 "/>
<path class="st8" d="M30.5,32.3c0.3-0.6,1.1-0.8,1.6-0.5c0.6,0.3,0.8,1,0.5,1.6c-0.3,0.6-1.1,0.8-1.6,0.5
	C30.4,33.6,30.2,32.9,30.5,32.3z"/>
<path class="st7" d="M27,40.8c0,0,1.2-0.6,3.1-2.3"/>
<path class="st7" d="M27.5,29.8c0,0,4.3,0.3,5.1,0.7c0.8,0.4,1.5,1,1.6,1.7c0.2,0.6,0.4,1.8-2.5,4.9c-0.3,0.3-0.5,0.5-0.8,0.8"/>
<path class="st7" d="M27.4,32.7c0,0,1,0.4,1.3,1.1c0.2,0.5,0.6,0.9-0.1,2.1"/>
<g>
	<g>
		<g>
			<g>
				<path class="st5" d="M38.9,52.2c0.1-1.1,0-1.5-0.1-2c-0.1-0.3-1.2-2-1.2-2l-1.1,0.4c0,0,0.5,1.8,0.1,3.4 M37.6,48.7l-0.9,0.3
					 M36.6,51.9c0,0-0.1,0.4-0.5,1.1c0,0-0.3,0.8-1.4,1.7c0,0-0.6,0.6-1.9,1.2c0,0-1.6,0.9-2.7,0.6c0,0-1-0.2-1.4-1.5l-0.7-2.3
					l-0.8-3.2c0,0-0.7-3-0.9-4.3c0,0-0.5-2.4-0.6-3.5c0,0-0.2-1.5-0.2-2.1c0,0,0.1-0.8,0.9-1.2c0,0,0.8-0.4,2-0.3
					c0,0,1.7,0.1,2.5,0.5c0,0,0.9,0.2,1.7,1.2l0.2,0.4c0.1,0.2,0.2,0.5,0.2,0.7c0,0.2,0.2,0.3,0.6,0.2c0.4-0.1,0.9-0.2,1.1-0.2
					c0.2-0.1,0.5-0.4,0.4-0.9l-0.4-1.3c0,0,0-0.3-1-1.1c0,0-0.6-0.6-2.1-1.2c0,0-0.9-0.4-2.6-0.5c0,0-1.8-0.3-3.1,0.3
					c0,0-1.1,0.3-1.8,1.3c0,0-0.8,1-0.9,2.3c0,0-0.2,1,0.1,2.6l0.3,1.7c0,0,0.3,2,0.6,2.9l0.4,1.9l0.7,3l0.5,2c0,0,0.7,2.7,1.4,3.4
					c0,0,0.7,1,1.6,1.4c0,0,1.1,0.6,2.2,0.5c0,0,1.3-0.1,2.5-0.7c0,0,1.2-0.5,2.4-1.4c0,0,1.1-0.8,1.8-1.9c0,0,1-1.6,1.2-2.8"/>
			</g>
		</g>
	</g>
	<path class="st6" d="M36.8,50.1c0,0.3-0.1,0.9,0.3,1c0.3,0.1,0.6-0.1,0.9-0.2c0.3-0.1,0.8-0.5,0.7-0.9"/>
	<line class="st6" x1="38.4" y1="50" x2="36.8" y2="50.5"/>
	<path class="st9" d="M34.4,38.4c-0.4-0.6-0.9-0.9-2.3-0.1c-0.2,0.1-0.2,0.2-0.2,0.3"/>
	<path class="st5" d="M35.6,50c0,0,0.1,0.3,0.6,0.2c0.2,0,0.4-0.1,1.1-0.4c0.7-0.3,0.6-0.6,0.5-0.7c0,0,0-0.1-0.1-0.4
		c0-0.1-0.2-0.2-0.3-0.6c-0.2-0.5,0-0.5-0.1-0.8c-0.9-3-2.6-8.8-2.6-8.8c-0.1-0.4-0.6-0.4-1.2-0.2c-0.6,0.2-0.9,0.2-0.8,0.7
		c0.1,0.5,0.4,1.5,0.4,1.5s0.2,0.6,0.1,0.6L35.6,50z"/>
	<g>
		<g>
			<path class="st5" d="M37.5,48.1c0.5-0.2,0.5-0.5,0.5-0.5L37.8,47l0.1-0.1c0,0-1-3.5-1-3.7c-0.1-0.2-0.1-0.2-0.1-0.2
				s-0.1-0.3-0.2-0.6c-0.1-0.2-0.2-0.3-0.3-0.3l-0.3,0c-0.7,0.2-1.8,0.6-2.6,0.8c-0.1,0-0.4,0.1-0.3,0.6c0.1,0.5,0.1,0.6,0.1,0.6
				l-0.1,0.1l1,3.8l0.1,0.1l0.2,0.6c0,0,0.1,0.3,0.6,0.2C35.8,48.7,36.9,48.4,37.5,48.1z"/>
			<path class="st6" d="M34.4,48c0.9-0.2,2.5-0.6,3.4-1"/>
		</g>
		<path class="st6" d="M33.3,44c0.8-0.2,2.5-0.6,3.4-1"/>
	</g>
	<path class="st5" d="M33.5,39.8c0-0.2,0.1-0.4,0.3-0.4c0.2,0,0.4,0.1,0.4,0.3c0,0.2-0.1,0.4-0.3,0.4C33.7,40.1,33.5,40,33.5,39.8"
		/>
</g>
<path class="st4" d="M44.5,103.3c0.2-0.1,2.3,1,3.2,1.6c0.8,0.5,1,1.3,1,1.7c0.1,0.4-0.1,1.5-0.1,1.5s0.6,0.8,0.8,1.4
	c0.2,0.5,0.3,1.5-0.9,2.8c-1.2,1.3-1.7,2.1-2.2,2.3c-0.5,0.2-2.4,0.4-3.3-0.2c-1-0.6-1.8-1.4-2-3.2c-0.2-1.8-0.5-3.2-0.7-4.2
	c-0.2-0.9-0.4-2.2,0.9-3.5l0.6-0.4c0,0,0.4,1.4,0.8,2.6c0.4,1,0.8,2.2,0.9,2.5l0.3,0.9C44,109.1,45.3,105.3,44.5,103.3"/>
<path class="st10" d="M40.4,106.9c-0.2-0.9-0.4-2.2,0.9-3.5l0.6-0.4c0,0,0.3,1.3,0.8,2.6c0.4,1,0.6,1.8,0.9,2.6l0.3,0.9
	c0,0,1.3-3.8,0.6-5.8"/>
<path class="st10" d="M44.3,109.3c0,0,1.4-4,0.2-5.7"/>
<path class="st10" d="M48.7,108.1c0,0-0.1,0.9-0.6,2"/>
<path class="st9" d="M49.5,109.5c0,0,0.5,1.7-2.3,1.6c-2.2-0.1-3.7-1.2-5-2.4c-1.2-1.2-2.6-3.5-1-5"/>
<path class="st10" d="M49.1,108.7c0,0,0.6,1.1-0.5,1.3c-1,0.2-2.8,0.8-5.1-1.1c-2.2-1.9-3.1-4.1-1.6-5.3"/>
<path class="st4" d="M48.1,131.7c2.2,11,0.3,10.7,0.3,10.7c-1.5,0.1-1.3,1-1.2,1c1.5,0.5,2.4,0.1,2.9-0.1c1-0.3,2.3-1.4,2.4-3.8
	c0-0.8,0.1-4.3-1.2-10.6c-1.5-7.4-4.3-14.7-4.3-14.7s-0.8,0.4-1.2,0.5c-0.4,0.1-0.7,0.1-1,0C44.5,114.7,46.4,123.7,48.1,131.7z"/>
<path class="st4" d="M44.1,108.9c-3.8-6.1-8.8-28.2-10.5-34.8c-1.5-5.8-2.2-8.8-3.5-15.1c0-0.1,0.9,0.1,2.2-0.2
	c0.6-0.1,1.1-0.4,1.3-0.5c0,0,2.4,10.6,7.4,34.6c0,0-4.4-27-7.5-35.7c0-0.1-0.3-0.5-0.5-0.7c0,0-0.2-0.2-0.6-0.2
	c-0.2,0-0.5,0.2-1.1,0.3c-0.1,0-0.2,0-0.3,0c-0.2,0-0.2-0.1-0.1-0.2c3.7-3.2,5.4-0.4,5.8,0.1c0.5,0.8,1.4,2.9,2,5.6
	c4.8,20.3,6.2,40.3,6.2,40.8c0,0-0.1,1.4,0,1.7c0.1,0.3,0,1.4-0.2,2.2C44.3,108.7,44.1,108.9,44.1,108.9z"/>
<path class="st5" d="M42,99.9"/>
<path class="st4" d="M26.8,30.1c0,0-0.4,8.1-0.5,9.3c-0.1,1.1-0.1,1.6,0.2,1.6c0.3,0,0.4,0,0.5-0.5c0-0.5,0.5-8.1,0.6-9.3
	c0.1-1.2,0.2-1.4-0.2-1.5C27,29.7,26.8,29.8,26.8,30.1z"/>
<path class="st10" d="M44.1,108.9c0,0-0.8-1-3.1-16"/>
<path class="st4" d="M47.9,140.1l6.2-22.6L62,91.2c0,0,0.3-1,0.5-1.6c0.2-0.6,0.6-1,0.6-1l0.1-1.2c0,0,0.6-0.1,1.2-0.1
	c0,0,0.4-0.4-0.8-0.4c-1.9-0.1-3.5,0.5-4.6,3.8c-3.6,10.7-5.1,14.9-8.4,26.5c-6.6,23.5-5.2,24.3-5,24.1c0.3-0.3,0.6-0.5,1.1-0.8
	L47.9,140.1z"/>
<polygon class="st7" points="67.7,65.4 67.6,63.4 69.4,62.2 71.3,63.1 71.3,65.2 69.6,66.4 "/>
<path class="st8" d="M68.2,64.1c0.1-0.7,0.7-1.1,1.3-1.1c0.7,0.1,1.1,0.6,1.1,1.3c-0.1,0.7-0.7,1.1-1.3,1.1
	C68.7,65.3,68.2,64.8,68.2,64.1z"/>
<path class="st7" d="M67.9,73.3c0.2-0.1,0.4-0.3,0.6-0.5c0,0,0.3-0.3,0.3-0.3c0,0,0.5-0.7,0.9-1.4c0,0,0.5-0.7,0.7-1"/>
<path class="st7" d="M64.4,63c0,0,4.1-1.4,5-1.4c0.9,0,1.8,0.3,2.2,0.8c0.4,0.5,1.1,1.5-0.5,5.4l-0.1,0.2"/>
<path class="st7" d="M65.5,65.6c0,0,1.1,0,1.6,0.5c0.4,0.3,0.8,0.5,0.8,1.7"/>
<g>
	<g>
		<g>
			<g>
				<path class="st5" d="M60,84.2c-0.5-1.5,0-3.3,0-3.3L59,80.7c0,0-1.2,1.8-1.2,2.1c-0.1,0.6-0.2,1-0.1,2 M59.9,81.4l-1-0.2
					 M57.7,84.8c0.2,1.2,1.3,2.5,1.3,2.5c0.7,0.9,1.9,1.6,1.9,1.6c1.2,0.7,2.5,1.1,2.5,1.1c1.3,0.5,2.6,0.4,2.6,0.4
					c1.2,0,2.3-0.7,2.3-0.7c0.9-0.5,1.6-1.5,1.6-1.5c0.7-0.8,1.4-3.4,1.4-3.4l0.5-2l0.7-3l0.4-1.9c0.2-0.9,0.6-2.9,0.6-2.9l0.3-1.7
					c0.3-1.6,0.1-2.5,0.1-2.5c-0.1-1.2-1-2.1-1-2.1c-0.8-0.9-1.9-1-1.9-1c-1.3-0.4-3.2,0.1-3.2,0.1c-1.7,0.4-2.7,0.8-2.7,0.8
					c-1.5,0.7-2.2,1.4-2.2,1.4c-1,0.9-1,1.2-1,1.2l-0.4,1.3c-0.1,0.5,0.2,0.8,0.4,0.8c0.3,0,0.7,0,1.2,0.1c0.4,0,0.6-0.1,0.7-0.3
					c0-0.2,0.1-0.4,0.2-0.7l0.2-0.4c0.8-1,1.7-1.3,1.7-1.3c0.8-0.4,2.6-0.8,2.6-0.8c1.2-0.3,2.1,0,2.1,0c0.9,0.3,1,1.1,1,1.1
					c0,0.6-0.2,2-0.2,2c-0.1,1-0.6,3.4-0.6,3.4c-0.2,1.3-0.9,4.3-0.9,4.3L68.9,84l-0.7,2.3c-0.4,1.4-1.4,1.6-1.4,1.6
					c-1.1,0.4-2.8-0.3-2.8-0.3c-1.3-0.4-1.9-0.9-1.9-0.9c-1.2-0.8-1.5-1.5-1.5-1.5c-0.4-0.7-0.5-1-0.5-1"/>
			</g>
		</g>
	</g>
	<path class="st6" d="M59.8,82.4c0,0.3,0.2,0.8-0.3,1c-0.3,0.1-0.7,0-1-0.1c-0.3,0-0.8-0.4-0.7-0.8"/>
	<line class="st6" x1="58.2" y1="82.5" x2="59.8" y2="82.9"/>
	<path class="st9" d="M62.2,71c0.4-0.6,0.9-1,2.4-0.4c0.2,0,0.2,0.2,0.2,0.3"/>
	<path class="st5" d="M61.1,82.2c0,0-0.1,0.3-0.6,0.3c-0.2,0-0.4-0.1-1.1-0.2c-0.7-0.2-0.6-0.5-0.6-0.6c0,0,0-0.1,0.1-0.4
		c0-0.1,0.2-0.2,0.3-0.6c0.2-0.5,0-0.5,0.1-0.8c0.9-3,2.7-8.8,2.7-8.8c0.1-0.4,0.6-0.5,1.2-0.3c0.6,0.1,1,0.1,0.9,0.6
		c-0.1,0.5-0.4,1.5-0.4,1.5s-0.2,0.6-0.1,0.6L61.1,82.2z"/>
	<g>
		<g>
			<path class="st5" d="M59.1,80.7c-0.5-0.1-0.5-0.4-0.5-0.4l0.2-0.7l-0.1-0.1c0,0,1-3.4,1-3.7c0.1-0.2,0.1-0.2,0.1-0.2
				s0.1-0.3,0.2-0.6c0.1-0.2,0.2-0.3,0.3-0.3l0.3,0c0.7,0.2,1.9,0.3,2.7,0.4c0.1,0,0.4,0.1,0.3,0.5c-0.1,0.5-0.1,0.6-0.1,0.6
				l0.1,0.1l-1,3.8l-0.1,0.1l-0.2,0.6c0,0-0.1,0.3-0.6,0.3C60.9,81,59.7,80.9,59.1,80.7z"/>
			<path class="st6" d="M62.3,80.2c-1-0.1-2.6-0.3-3.6-0.6"/>
		</g>
		<path class="st6" d="M63.4,76.2c-0.8-0.1-2.6-0.3-3.6-0.6"/>
	</g>
	<path class="st5" d="M63.2,72.1c0-0.2-0.1-0.4-0.3-0.4c-0.2,0-0.4,0.2-0.5,0.4c0,0.2,0.1,0.4,0.3,0.4
		C62.9,72.5,63.1,72.3,63.2,72.1"/>
</g>
<path class="st4" d="M63.9,63.6c0,0,2.8,7.6,3.2,8.6c0.4,1.1,0.5,1.5,0.8,1.4c0.3-0.1,0.4-0.1,0.3-0.6c-0.2-0.5-2.7-7.5-3.1-8.7
	c-0.4-1.1-0.4-1.4-0.7-1.2C63.9,63.2,63.8,63.3,63.9,63.6z"/>
<path class="st4" d="M49.2,143.5c1-0.2,2.7-0.7,4.2-3.3c4.3-7.9,11.9-40.5,12.7-45.2c0.5-2.7,0.6-5,0.6-5c0-0.1-0.1-2.2-1.1-2.8
	c-0.5-0.3-1.6-0.9-3.4-0.5c-0.6,0.1,1.2,0,1.3,2.3c0,0.4-0.2,2.4-0.7,5.7c-0.9,5.2-12,45.6-12,46c0,0.2-0.1,0.6-0.2,0.8
	c-0.2,0.7-0.1,0.7-0.5,1.2C49.6,143.5,49.2,143.5,49.2,143.5z"/>
<g>
	<path class="st11" d="M13.4,2.2H8.8L8.4,4.8l0,0C9,4.2,9.7,3.9,10.6,3.9c2.2,0,3.5,1.7,3.5,3.8c0,2.3-1.9,4.1-4.2,4
		c-2.2,0-4.1-1.2-4.2-3.6H8c0.1,1,0.8,1.7,1.8,1.7c1.2,0,1.9-1,1.9-2.2c0-1.2-0.7-2.1-1.9-2.1C9,5.7,8.6,5.9,8.1,6.5h-2l1.1-6.2h6.3
		V2.2z"/>
	<path class="st11" d="M18.8,0.1c2.2,0,4.1,1.4,4.1,5.8c0,4.5-1.9,5.9-4.1,5.9c-2.2,0-4.1-1.4-4.1-5.9C14.7,1.5,16.5,0.1,18.8,0.1z
		 M18.8,9.9c1.9,0,1.9-2.7,1.9-4c0-1.2,0-3.9-1.9-3.9c-1.8,0-1.8,2.7-1.8,3.9C16.9,7.2,16.9,9.9,18.8,9.9z"/>
	<path class="st11" d="M31.6,0.1c2,0,2.6,1.5,2.6,3.2c0,1.7-0.8,3-2.7,3c-2,0-2.6-1.3-2.6-3.1C28.9,1.6,29.7,0.1,31.6,0.1z
		 M31.5,5.2c1,0,1.1-1.2,1.1-1.8c0-0.6,0-2-1-2c-1,0-1.1,1.3-1.1,2C30.5,4,30.5,5.2,31.5,5.2z M38.4,0h1.4l-6.6,11.9h-1.4L38.4,0z
		 M39.9,5.5c2,0,2.6,1.4,2.6,3.2c0,1.7-0.8,3.1-2.7,3.1c-2,0-2.6-1.4-2.6-3.2C37.1,6.9,38,5.5,39.9,5.5z M39.8,10.6
		c1,0,1.1-1.2,1.1-1.9c0-0.6,0-1.9-1-1.9c-1,0-1.1,1.2-1.1,1.9C38.8,9.3,38.8,10.6,39.8,10.6z"/>
</g>
<g>
	<path class="st11" d="M38.1,211.4h-2.3v-7.3H33v-1.7c1.6,0,3-0.5,3.3-2.2h1.8V211.4z"/>
	<path class="st11" d="M45.2,200c2.2,0,4.1,1.4,4.1,5.8c0,4.5-1.9,5.9-4.1,5.9c-2.2,0-4.1-1.4-4.1-5.9C41.1,201.4,42.9,200,45.2,200
		z M45.2,209.8c1.9,0,1.9-2.7,1.9-4c0-1.2,0-3.9-1.9-3.9c-1.8,0-1.8,2.7-1.8,3.9C43.3,207,43.3,209.8,45.2,209.8z"/>
	<path class="st11" d="M54.1,200c2.2,0,4.1,1.4,4.1,5.8c0,4.5-1.9,5.9-4.1,5.9c-2.2,0-4.1-1.4-4.1-5.9C50,201.4,51.8,200,54.1,200z
		 M54.1,209.8c1.9,0,1.9-2.7,1.9-4c0-1.2,0-3.9-1.9-3.9c-1.8,0-1.8,2.7-1.8,3.9C52.2,207,52.2,209.8,54.1,209.8z"/>
	<path class="st11" d="M66.9,200c2,0,2.6,1.5,2.6,3.2c0,1.7-0.8,3-2.7,3c-2,0-2.6-1.3-2.6-3.1C64.2,201.4,65,200,66.9,200z
		 M66.8,205c1,0,1.1-1.2,1.1-1.8c0-0.6,0-2-1-2c-1,0-1.1,1.3-1.1,2C65.8,203.9,65.8,205,66.8,205z M73.7,199.9H75l-6.6,11.9H67
		L73.7,199.9z M75.2,205.4c2,0,2.6,1.4,2.6,3.2c0,1.7-0.8,3.1-2.7,3.1c-2,0-2.6-1.4-2.6-3.2C72.4,206.8,73.3,205.4,75.2,205.4z
		 M75.1,210.4c1,0,1.1-1.2,1.1-1.9c0-0.6,0-1.9-1-1.9c-1,0-1.1,1.2-1.1,1.9C74.1,209.2,74.1,210.4,75.1,210.4z"/>
</g>
<g>
	<path class="st11" d="M65.9,30.7h-4.6l-0.4,2.5l0,0c0.6-0.6,1.3-0.9,2.2-0.9c2.2,0,3.5,1.7,3.5,3.8c0,2.3-1.9,4.1-4.2,4
		c-2.2,0-4.1-1.2-4.2-3.6h2.3c0.1,1,0.8,1.7,1.8,1.7c1.2,0,1.9-1,1.9-2.2c0-1.2-0.7-2.1-1.9-2.1c-0.8,0-1.3,0.3-1.7,0.9h-2l1.1-6.2
		h6.3V30.7z"/>
	<path class="st11" d="M71.2,28.6c2.2,0,4.1,1.4,4.1,5.8c0,4.5-1.9,5.9-4.1,5.9c-2.2,0-4.1-1.4-4.1-5.9C67.1,30,69,28.6,71.2,28.6z
		 M71.2,38.4c1.9,0,1.9-2.7,1.9-4c0-1.2,0-3.9-1.9-3.9c-1.8,0-1.8,2.7-1.8,3.9C69.4,35.6,69.4,38.4,71.2,38.4z"/>
	<path class="st11" d="M84,28.6c2,0,2.6,1.5,2.6,3.2c0,1.7-0.8,3-2.7,3c-2,0-2.6-1.3-2.6-3.1C81.3,30,82.2,28.6,84,28.6z M84,33.6
		c1,0,1.1-1.2,1.1-1.8c0-0.6,0-2-1-2c-1,0-1.1,1.3-1.1,2C83,32.5,83,33.6,84,33.6z M90.8,28.5h1.4l-6.6,11.9h-1.4L90.8,28.5z
		 M92.3,34c2,0,2.6,1.4,2.6,3.2c0,1.7-0.8,3.1-2.7,3.1c-2,0-2.6-1.4-2.6-3.2C89.6,35.4,90.4,34,92.3,34z M92.2,39
		c1,0,1.1-1.2,1.1-1.9c0-0.6,0-1.9-1-1.9c-1,0-1.1,1.2-1.1,1.9C91.2,37.8,91.2,39,92.2,39z"/>
</g>
<g>
	<g>
		<path class="st11" d="M8.1,95.1l-5.9,2.3l5.9,2.3v1.8L0,98.4v-1.9l8.1-3.2V95.1z"/>
		<path class="st11" d="M17.8,90.1c2.8,0,3.7,1.9,3.7,3c0,1.1-0.6,2-1.6,2.4v0c1.3,0.3,2.1,1.3,2.1,2.7c0,2.4-2.1,3.5-4.2,3.5
			c-2.2,0-4.3-1.1-4.3-3.5c0-1.4,0.8-2.4,2.1-2.8v0c-1.1-0.3-1.6-1.2-1.6-2.3C14,91.1,16,90.1,17.8,90.1z M17.8,100
			c1.1,0,1.9-0.8,1.9-1.9c0-1.1-0.9-1.8-1.9-1.8c-1.1,0-2,0.6-2,1.8S16.7,100,17.8,100z M17.8,94.8c0.9,0,1.7-0.5,1.7-1.5
			c0-0.6-0.3-1.6-1.7-1.6c-0.9,0-1.7,0.5-1.7,1.6C16.1,94.3,16.9,94.8,17.8,94.8z"/>
		<path class="st11" d="M25.4,90.1c1.3,0,2.4,1,2.4,2.4c0,1.3-1,2.4-2.4,2.4c-1.3,0-2.4-1-2.4-2.4C23,91.1,24.1,90.1,25.4,90.1z
			 M25.4,93.9c0.7,0,1.3-0.6,1.3-1.4S26.1,91,25.4,91s-1.3,0.6-1.3,1.4S24.7,93.9,25.4,93.9z"/>
	</g>
</g>
<g>
	<polygon class="st12" points="12.3,203.3 15.3,201.6 21.4,201.6 24.5,203.3 26.9,210.9 22.6,212.6 14.1,212.6 9.9,210.9 	"/>
	<line class="st13" x1="15.3" y1="205" x2="14.1" y2="212.6"/>
	<line class="st13" x1="21.3" y1="205.3" x2="22.6" y2="212.6"/>
	<polyline class="st14" points="24.5,203.3 21.4,205 15.3,205 12.3,203.3 	"/>
	<circle class="st15" cx="18.6" cy="200.4" r="2.7"/>
</g>
</svg>
