<?xml version="1.0" encoding="utf-8"?>
<!-- Generator: Adobe Illustrator 21.0.0, SVG Export Plug-In . SVG Version: 6.00 Build 0)  -->
<svg version="1.1" id="Calque_1" xmlns="http://www.w3.org/2000/svg" xmlns:xlink="http://www.w3.org/1999/xlink" x="0px" y="0px"
	 viewBox="0 0 182.5 181.6" style="enable-background:new 0 0 182.5 181.6;" xml:space="preserve">
<style type="text/css">
	.st0{fill:#1A171B;}
	.st1{fill:none;stroke:#CCCCCC;stroke-width:10;}
	.st2{fill:#999999;}
	.st3{fill:url(#SVGID_1_);}
	.st4{fill:url(#SVGID_2_);}
	.st5{fill:url(#SVGID_3_);}
	.st6{fill:#FFFFFF;stroke:#1A171B;stroke-width:0.98;}
	.st7{fill:#FFFFFF;stroke:#1A171B;stroke-width:0.98;stroke-linecap:round;stroke-linejoin:round;}
	.st8{fill:#FFFFFF;stroke:#1A171B;stroke-width:0.4;stroke-linecap:round;stroke-linejoin:round;}
	.st9{fill:none;stroke:#1A171B;stroke-width:0.98;stroke-linecap:round;stroke-linejoin:round;}
	.st10{fill:none;stroke:#1A171B;stroke-width:0.98;}
	.st11{fill:none;stroke:#1A171B;stroke-width:0.4;}
	.st12{fill:none;stroke:#1A171B;stroke-width:0.4;stroke-linecap:round;stroke-linejoin:round;}
	.st13{fill:#E75300;}
	.st14{fill:#FFFFFF;}
	.st15{fill:#FFFFFF;stroke:#1A171B;stroke-width:0.8;stroke-linecap:round;stroke-linejoin:round;}
	.st16{fill:#C5C6C8;stroke:#1A171B;stroke-width:0.5;stroke-linecap:round;stroke-linejoin:round;}
	.st17{fill:none;stroke:#1A171B;stroke-width:0.5;stroke-linecap:round;stroke-linejoin:round;}
	.st18{fill:none;stroke:#1A171B;stroke-width:0.8;stroke-linecap:round;stroke-linejoin:round;}
</style>
<g>
	<path class="st0" d="M97.1,78.5c0.1,0.8,0.7,1.4,1.5,1.4c1.7,0,2.1-2.2,2.1-3.4l0,0c-0.6,0.9-1.4,1.2-2.5,1.2c-1,0-1.9-0.4-2.6-1.2
		c-0.6-0.7-0.9-1.6-0.9-2.5c0-2.3,1.6-4.1,3.9-4.1c3.4,0,4.3,3,4.3,5.8c0,2.8-1.2,5.9-4.4,5.9c-1.9,0-3.4-1.1-3.6-3.1H97.1z
		 M100.5,73.9c0-1-0.7-2.1-1.8-2.1c-1.1,0-1.7,1-1.7,2c0,1.1,0.5,2.1,1.7,2.1C99.9,76,100.5,75,100.5,73.9z"/>
	<path class="st0" d="M107.7,69.9c2.2,0,4.1,1.4,4.1,5.8c0,4.5-1.9,5.9-4.1,5.9c-2.2,0-4.1-1.4-4.1-5.9
		C103.6,71.3,105.5,69.9,107.7,69.9z M107.7,79.7c1.9,0,1.9-2.7,1.9-4c0-1.2,0-3.9-1.9-3.9c-1.8,0-1.8,2.7-1.8,3.9
		C105.9,77,105.9,79.7,107.7,79.7z"/>
	<path class="st0" d="M115.4,69.9c1.3,0,2.4,1,2.4,2.4c0,1.3-1,2.4-2.4,2.4c-1.3,0-2.4-1-2.4-2.4C113,71,114,69.9,115.4,69.9z
		 M115.4,73.7c0.7,0,1.3-0.6,1.3-1.4s-0.6-1.4-1.3-1.4s-1.3,0.6-1.3,1.4S114.7,73.7,115.4,73.7z"/>
</g>
<path class="st1" d="M69.3,69C75.4,63,83,58.3,91.9,56c17.9-4.8,36.2,0.8,48.4,13.1"/>
<g>
	<polyline class="st2" points="113.3,115.8 113.3,131.2 119.4,131.2 103.4,150.4 103.3,150.4 87.4,131.2 93.4,131.2 93.4,115.8 	"/>
</g>
<linearGradient id="SVGID_1_" gradientUnits="userSpaceOnUse" x1="-931.3027" y1="657.1994" x2="-931.3027" y2="627.8459" gradientTransform="matrix(1 0 0 1 1035.75 -532.3967)">
	<stop  offset="0" style="stop-color:#FFFFFF;stop-opacity:0"/>
	<stop  offset="0.2761" style="stop-color:#FFFFFF"/>
	<stop  offset="0.7853" style="stop-color:#FFFFFF"/>
	<stop  offset="1" style="stop-color:#FFFFFF;stop-opacity:0"/>
</linearGradient>
<rect x="81.6" y="95.4" class="st3" width="45.8" height="29.4"/>
<g>
	<g>
		<polyline class="st2" points="24.3,35.8 18,30 15.7,32.4 13.8,18.6 13.9,18.6 27.8,19.3 25.5,21.8 31.8,27.6 		"/>
	</g>
	
		<linearGradient id="SVGID_2_" gradientUnits="userSpaceOnUse" x1="-1797.7318" y1="238.8965" x2="-1797.7318" y2="221.3477" gradientTransform="matrix(-0.6759 0.737 -0.737 -0.6759 -1014.86 1514.3224)">
		<stop  offset="0" style="stop-color:#FFFFFF;stop-opacity:0"/>
		<stop  offset="0.2761" style="stop-color:#FFFFFF"/>
		<stop  offset="0.7853" style="stop-color:#FFFFFF"/>
		<stop  offset="1" style="stop-color:#FFFFFF;stop-opacity:0"/>
	</linearGradient>
	<polygon class="st4" points="8.7,44.8 40.5,11.8 52.6,22.9 20.7,55.9 	"/>
</g>
<g>
	<g>
		<polyline class="st2" points="162.8,58.4 169.2,52.7 171.4,55.2 173.5,41.5 173.5,41.5 159.6,41.9 161.8,44.4 155.4,50.1 		"/>
	</g>
	
		<linearGradient id="SVGID_3_" gradientUnits="userSpaceOnUse" x1="-1066.1436" y1="945.6465" x2="-1066.1436" y2="928.629" gradientTransform="matrix(0.6625 0.749 0.749 -0.6625 161.7302 1477.2607)">
		<stop  offset="0" style="stop-color:#FFFFFF;stop-opacity:0"/>
		<stop  offset="0.2761" style="stop-color:#FFFFFF"/>
		<stop  offset="0.7853" style="stop-color:#FFFFFF"/>
		<stop  offset="1" style="stop-color:#FFFFFF;stop-opacity:0"/>
	</linearGradient>
	<polygon class="st5" points="178.8,69.3 148.1,35.6 135.9,46.4 166.5,80.1 	"/>
</g>
<path class="st6" d="M92.5,106.9c4.7,5.6,7.3,6.9,7.9,6.1c0.6-0.7,1.7-1.6,1.6-1.7c-0.8-0.4-0.6-0.3-1.7-1.2
	c-6.3-5-16.5-21.2-16.5-21.2s-0.5,0.9-0.8,1.2c-0.3,0.2-0.6,0.4-0.9,0.5C81.7,90.7,87.8,101.3,92.5,106.9z"/>
<g>
	<g>
		<g>
			<g>
				<path class="st7" d="M110.3,127.4c0.3-1,0.3-1.4,0.3-2c0-0.3-0.7-2.3-0.7-2.3l-1.1,0.1c0,0,0.1,1.9-0.7,3.4 M109.8,123.6l-1,0.1
					 M108.1,126.6c0,0-0.2,0.4-0.7,1c0,0-0.5,0.7-1.8,1.4c0,0-0.7,0.4-2.1,0.7c0,0-1.8,0.5-2.8,0c0,0-0.9-0.4-1-1.8l-0.2-2.4
					l-0.1-3.3c0,0,0-3.1,0.1-4.4c0,0,0.1-2.5,0.2-3.5c0,0,0.1-1.5,0.3-2.1c0,0,0.3-0.8,1.2-1c0,0,0.8-0.2,2,0.2c0,0,1.7,0.5,2.3,1
					c0,0,0.8,0.4,1.4,1.5l0.1,0.4c0,0.2,0,0.5,0,0.7c0,0.2,0.2,0.4,0.6,0.3c0.4,0,0.9,0,1.2,0c0.3,0,0.6-0.3,0.6-0.8l-0.1-1.4
					c0,0,0-0.3-0.7-1.3c0,0-0.5-0.8-1.8-1.7c0,0-0.8-0.6-2.4-1.1c0,0-1.7-0.7-3.1-0.4c0,0-1.1,0.1-2.1,0.9c0,0-1,0.8-1.4,2
					c0,0-0.4,1-0.5,2.6l-0.1,1.7c0,0-0.1,2-0.1,3l0,1.9l0,3.2l0.1,2.1c0,0,0.1,2.8,0.6,3.6c0,0,0.4,1.1,1.2,1.7c0,0,1,0.8,2.1,0.9
					c0,0,1.3,0.2,2.6-0.2c0,0,1.3-0.2,2.6-0.8c0,0,1.3-0.6,2.2-1.5c0,0,1.4-1.3,1.8-2.5"/>
			</g>
		</g>
	</g>
	<path class="st8" d="M108.7,124.8c0,0.3-0.3,0.8,0,1c0.3,0.1,0.6,0.1,0.9,0c0.3,0,0.9-0.3,0.9-0.8"/>
	<line class="st8" x1="110.3" y1="125" x2="108.6" y2="125.3"/>
	<path class="st9" d="M107.8,109.6c-0.5-0.5-1.1-0.6-2.2,0.6c-0.1,0.1-0.1,0.3-0.1,0.4"/>
	<path class="st7" d="M107.5,124.4c0,0,0,0.3,0.6,0.3c0.2,0,0.4,0,1.2-0.1c0.7-0.1,0.7-0.5,0.7-0.6c0,0,0-0.2,0-0.4
		c0-0.2-0.2-0.2-0.2-0.6c0-0.6,0.1-0.5,0.1-0.8c-0.2-3.1-0.6-9.2-0.6-9.2c0-0.4-0.5-0.5-1.1-0.5c-0.6,0.1-1,0-1,0.5
		c0,0.6,0.1,1.6,0.1,1.6s0.1,0.7-0.1,0.7L107.5,124.4z"/>
	<g>
		<g>
			<path class="st7" d="M109.9,123c0.5-0.1,0.5-0.4,0.5-0.4V122l0.1-0.1c0,0-0.2-3.6-0.2-3.9c0-0.3-0.1-0.2-0.1-0.2s0-0.3,0-0.6
				c0-0.2-0.1-0.3-0.2-0.4l-0.3,0c-0.7,0.1-1.9,0.2-2.7,0.2c-0.1,0-0.4,0-0.4,0.5c0,0.5,0,0.6,0,0.6l-0.1,0l0.2,4l0.1,0.1l0,0.6
				c0,0,0,0.3,0.5,0.3C108,123.2,109.2,123.2,109.9,123z"/>
			<path class="st8" d="M106.8,122.2c1,0,2.6,0,3.6-0.2"/>
		</g>
		<path class="st8" d="M106.6,118.1c0.8,0,2.6,0,3.6-0.3"/>
	</g>
	<path class="st7" d="M107.8,113.9c0-0.2,0.2-0.4,0.4-0.4c0.2,0,0.4,0.2,0.4,0.4c0,0.2-0.2,0.4-0.4,0.4
		C107.9,114.3,107.8,114.2,107.8,113.9"/>
</g>
<polygon class="st10" points="27,30.2 26.5,28.2 28.1,26.7 30.1,27.4 30.5,29.4 29,30.8 "/>
<ellipse transform="matrix(0.9977 -6.810700e-02 6.810700e-02 0.9977 -1.89 2.0073)" class="st11" cx="28.5" cy="28.7" rx="1.2" ry="1.2"/>
<path class="st10" d="M28.9,37.9c0,0,0.7-1.1,1.4-3.6"/>
<path class="st10" d="M23.4,28.3c0,0,3.8-2,4.7-2.2c0.9-0.1,1.8,0.1,2.3,0.5c0.5,0.5,1.4,1.3,0.5,5.5c-0.1,0.4-0.2,0.7-0.2,1"/>
<path class="st10" d="M24.9,30.8c0,0,1-0.2,1.7,0.2c0.4,0.3,1,0.4,1.1,1.8"/>
<g>
	<g>
		<g>
			<g>
				<path class="st7" d="M45.1,41c-0.5-0.9-0.8-1.2-1.2-1.7c-0.2-0.2-2.1-1.1-2.1-1.1l-0.7,0.9c0,0,1.4,1.2,1.9,2.8 M42.1,38.8
					l-0.6,0.8 M43,42c0,0,0.1,0.4,0.2,1.2c0,0,0.2,0.8-0.3,2.2c0,0-0.2,0.8-0.9,2c0,0-0.8,1.6-1.9,2c0,0-0.9,0.4-2-0.5l-1.8-1.6
					l-2.4-2.2c0,0-2.2-2.1-3.1-3.1c0,0-1.7-1.8-2.4-2.6c0,0-1-1.1-1.3-1.7c0,0-0.4-0.7,0.1-1.6c0,0,0.4-0.7,1.5-1.3
					c0,0,1.5-0.8,2.3-0.9c0,0,0.9-0.3,2.1,0.1l0.4,0.2c0.2,0.1,0.4,0.3,0.5,0.5c0.1,0.1,0.4,0.1,0.7-0.2c0.3-0.3,0.6-0.6,0.8-0.8
					c0.2-0.2,0.2-0.6-0.1-0.9l-1.1-0.9c0,0-0.2-0.2-1.4-0.4c0,0-0.9-0.2-2.4,0.1c0,0-1,0.2-2.5,0.9c0,0-1.7,0.7-2.5,1.9
					c0,0-0.7,0.8-0.8,2.1c0,0-0.1,1.3,0.5,2.4c0,0,0.4,0.9,1.5,2.1l1.1,1.3c0,0,1.3,1.5,2,2.1l1.4,1.4l2.3,2.2l1.5,1.4
					c0,0,2,1.9,3,2.1c0,0,1.1,0.5,2,0.3c0,0,1.3-0.1,2.1-0.8c0,0,1-0.8,1.7-2c0,0,0.7-1.1,1.2-2.4c0,0,0.5-1.3,0.5-2.6
					c0,0,0-1.9-0.5-3"/>
			</g>
		</g>
	</g>
	<path class="st8" d="M42.1,40.3c0.2,0.2,0.4,0.8,0.7,0.7c0.3-0.1,0.5-0.4,0.7-0.6c0.2-0.2,0.4-0.8,0.1-1.2"/>
	<line class="st8" x1="43.4" y1="39.4" x2="42.4" y2="40.7"/>
	<path class="st12" d="M33.8,31.9c-0.6-0.3-1.2-0.3-2,1.1c-0.1,0.1,0,0.3,0,0.4"/>
	<path class="st7" d="M41,40.9c0,0,0.2,0.2,0.6-0.2c0.1-0.1,0.3-0.3,0.7-0.9c0.4-0.6,0.1-0.8,0.1-0.9c0,0-0.1-0.1-0.3-0.3
		c-0.1-0.1-0.3,0-0.6-0.3C41.1,38,41.3,38,41,37.8c-2.4-2-7-6-7-6c-0.3-0.3-0.7,0-1.1,0.5c-0.4,0.5-0.7,0.7-0.3,1.1
		c0.4,0.4,1.2,1.1,1.2,1.1s0.5,0.4,0.4,0.5L41,40.9z"/>
	<g>
		<g>
			<path class="st7" d="M41.7,38.3c0.3-0.4,0.1-0.6,0.1-0.6l-0.5-0.5l0-0.1c0,0-2.7-2.4-2.9-2.6c-0.2-0.2-0.2-0.1-0.2-0.1
				S38,34.2,37.8,34c-0.2-0.1-0.3-0.1-0.4-0.1l-0.2,0.2c-0.4,0.6-1.2,1.5-1.7,2c-0.1,0.1-0.3,0.3,0.1,0.6c0.4,0.3,0.4,0.4,0.4,0.4
				l0,0.1l3,2.7l0.1,0l0.5,0.4c0,0,0.2,0.2,0.6-0.1C40.5,39.8,41.3,38.9,41.7,38.3z"/>
			<path class="st8" d="M39,39.9c0.7-0.7,1.8-1.8,2.4-2.7"/>
		</g>
		<path class="st8" d="M35.9,37.2c0.6-0.6,1.8-1.9,2.3-2.7"/>
	</g>
	<path class="st7" d="M33.8,33.5c-0.1-0.2-0.1-0.4,0-0.5c0.2-0.1,0.4-0.1,0.5,0c0.1,0.2,0.1,0.4,0,0.5
		C34.1,33.6,33.9,33.6,33.8,33.5"/>
</g>
<path class="st6" d="M77.4,81c0.1-0.2,2.5-0.4,3.5-0.4c1,0,1.5,0.6,1.8,0.9c0.3,0.3,0.8,1.3,0.8,1.3s1,0.4,1.4,0.7
	c0.4,0.4,1.1,1.1,0.7,2.8c-0.3,1.8-0.3,2.7-0.6,3.1c-0.3,0.4-1.8,1.6-2.9,1.6c-1.1,0-2.3-0.2-3.4-1.6c-1.2-1.4-2.1-2.5-2.8-3.1
	c-0.7-0.7-1.5-1.7-1.1-3.4l0.3-0.6c0,0,1,0.9,2.1,1.7c0.9,0.6,1.8,1.4,2.1,1.6l0.7,0.6C80,86.2,79.1,82.3,77.4,81"/>
<path class="st9" d="M75.8,86.3c-0.7-0.7-1.5-1.7-1.1-3.4l0.3-0.7c0,0,1,0.9,2.1,1.7c0.8,0.7,1.4,1.2,2.2,1.7l0.7,0.6
	c0,0-0.9-3.9-2.7-5.2"/>
<path class="st9" d="M80.5,86.2c0,0-0.9-4.1-2.9-4.9"/>
<path class="st9" d="M83.4,82.8c0,0,0.4,0.8,0.4,2"/>
<path class="st12" d="M84.9,83.6c0,0,1.4,1.2-1.1,2.6c-1.9,1.1-3.8,1-5.5,0.6c-1.7-0.4-4.1-1.6-3.6-3.7"/>
<path class="st9" d="M84.1,83.1c0,0,1.1,0.6,0.3,1.3c-0.8,0.7-2,2.2-4.9,1.8c-2.9-0.4-4.8-1.8-4.2-3.6"/>
<path class="st6" d="M95.7,103c7.8,8.1,5.5,8.5,5.5,8.5c-1.1,0.9-1,1.4-0.6,1.5c0.6,0.2,2.4-1.1,2.7-1.5c0.7-0.8,1.5-2.2,0.2-4.3
	c-0.4-0.6-2.2-3.6-6.7-8.3c-5.3-5.4-11.5-10.1-11.5-10.1s-0.4,0.8-0.7,1.1c-0.3,0.3-0.5,0.5-0.8,0.6C83.5,90.6,90,97.1,95.7,103z"/>
<path class="st6" d="M80,86c-6.5-3-22.6-19-27.6-23.6c-4.4-4-6.6-6.2-11.1-10.8c0,0,0.8-0.4,1.7-1.4c0.4-0.4,0.7-0.9,0.8-1.1
	c0,0,7.7,7.6,24.9,25.1c0,0-18.3-20.3-25.6-26c-0.1-0.1-0.5-0.3-0.8-0.3c0,0-0.3-0.1-0.6,0.2c-0.1,0.1-0.3,0.4-0.8,0.9
	C40.9,49,40.8,49,40.8,49c-0.2,0.2-0.2,0.1-0.1-0.1c1.3-4.7,4.4-3.2,4.9-3c0.9,0.4,2.7,1.7,4.7,3.6c15,14.5,26.9,30.6,27.2,30.9
	c0,0,0.7,1.2,0.9,1.4c0.2,0.2,0.7,1.2,1,1.9C80,85.7,80,86,80,86z"/>
<path class="st7" d="M73.4,79.5"/>
<path class="st6" d="M22.9,29c0,0,4,7.1,4.6,8.1c0.6,1,0.8,1.4,1.1,1.2c0.3-0.2,0.4-0.2,0.2-0.6c-0.2-0.4-4-7.1-4.6-8.1
	c-0.6-1.1-0.6-1.3-0.9-1.1C22.9,28.5,22.8,28.7,22.9,29z"/>
<path class="st9" d="M80,86c0,0-1.2-0.4-11.2-11.8"/>
<path class="st6" d="M103.6,107.5l16.2-15.9L140.1,73c0,0,0.8-0.7,1.3-1.1c0.5-0.4,1-0.6,1-0.6l0.7-1c0,0,0.5,0.2,1.1,0.5
	c0,0,0.6-0.1-0.5-0.8c-1.6-1-3.2-1.3-5.9,1c-8.6,7.4-12,10.2-20.7,18.5c-17.7,16.9-14,14.6-15,15.7
	C102.3,105.3,103.6,107.5,103.6,107.5z"/>
<polygon class="st10" points="158.1,53.7 159.1,51.9 161.2,51.8 162.4,53.5 161.4,55.4 159.3,55.5 "/>
<path class="st11" d="M159.3,52.9c0.4-0.5,1.2-0.6,1.7-0.3s0.7,1.1,0.3,1.7c-0.4,0.5-1.2,0.6-1.7,0.3
	C159,54.1,158.9,53.4,159.3,52.9z"/>
<path class="st10" d="M154.3,60.5c0.2,0,0.4,0,0.8-0.1c0,0,0.4-0.1,0.4-0.1c0,0,0.8-0.3,1.5-0.7c0,0,0.8-0.4,1.1-0.6"/>
<path class="st10" d="M156.6,50c0,0,4.2,0.9,5,1.3c0.8,0.5,1.3,1.2,1.4,1.8c0.1,0.6,0.2,1.9-3.2,4.4l-0.2,0.1"/>
<path class="st10" d="M156.1,52.8c0,0,0.9,0.5,1.2,1.2c0.2,0.5,0.4,0.9-0.2,1.9"/>
<g>
	<g>
		<g>
			<g>
				<path class="st7" d="M142,66c0.4-1.5,1.7-2.8,1.7-2.8l-0.8-0.7c0,0-1.9,1-2.1,1.2c-0.4,0.4-0.7,0.7-1.1,1.6 M143.3,63.5
					l-0.7-0.7 M139.6,65.2c-0.4,1.1-0.2,2.8-0.2,2.8c0.1,1.2,0.8,2.4,0.8,2.4c0.7,1.2,1.6,2.2,1.6,2.2c0.8,1.1,2,1.7,2,1.7
					c1,0.6,2.4,0.6,2.4,0.6c1,0.1,2.1-0.5,2.1-0.5c1-0.3,2.9-2.2,2.9-2.2l1.5-1.5l2.2-2.2l1.3-1.4c0.7-0.7,1.9-2.2,1.9-2.2l1.1-1.3
					c1-1.2,1.4-2.1,1.4-2.1c0.5-1.1,0.2-2.3,0.2-2.3c-0.2-1.1-1.1-1.8-1.1-1.8c-1-1-2.8-1.5-2.8-1.5c-1.7-0.6-2.7-0.7-2.7-0.7
					c-1.7-0.1-2.6,0.1-2.6,0.1c-1.3,0.3-1.5,0.5-1.5,0.5l-1,0.9c-0.3,0.4-0.2,0.7,0,0.9c0.2,0.1,0.6,0.4,1,0.7
					c0.4,0.3,0.6,0.2,0.7,0.1c0.1-0.1,0.3-0.3,0.5-0.5l0.4-0.3c1.2-0.4,2.2-0.3,2.2-0.3c0.9,0,2.6,0.7,2.6,0.7
					c1.2,0.4,1.8,1.1,1.8,1.1c0.6,0.7,0.3,1.4,0.3,1.4c-0.3,0.5-1.2,1.6-1.2,1.6c-0.6,0.8-2.2,2.6-2.2,2.6c-0.9,1.1-3,3.2-3,3.2
					l-2.3,2.3l-1.8,1.7c-1,1-2,0.7-2,0.7c-1.2-0.2-2.3-1.7-2.3-1.7c-0.9-1-1.2-1.8-1.2-1.8c-0.6-1.3-0.5-2-0.5-2
					c0-0.8,0.1-1.1,0.1-1.1"/>
			</g>
		</g>
	</g>
	<path class="st8" d="M142.7,64.3c-0.2,0.2-0.3,0.8-0.7,0.7c-0.3-0.1-0.6-0.3-0.8-0.5c-0.2-0.2-0.5-0.7-0.2-1.1"/>
	<line class="st8" x1="141.2" y1="63.6" x2="142.5" y2="64.7"/>
	<path class="st12" d="M150.6,55.7c0.7-0.3,1.3-0.4,2.2,0.9c0.1,0.1,0.1,0.3,0,0.4"/>
	<path class="st7" d="M143.9,64.8c0,0-0.2,0.2-0.7-0.1c-0.2-0.1-0.4-0.3-0.9-0.8c-0.5-0.5-0.2-0.8-0.2-0.8c0,0,0.1-0.1,0.3-0.3
		c0.1-0.1,0.3-0.1,0.6-0.3c0.4-0.4,0.2-0.4,0.5-0.6c2.3-2.1,6.8-6.2,6.8-6.2c0.3-0.3,0.8-0.1,1.2,0.3c0.4,0.4,0.8,0.6,0.4,1
		c-0.4,0.4-1.1,1.1-1.1,1.1s-0.5,0.4-0.4,0.5L143.9,64.8z"/>
	<g>
		<g>
			<path class="st7" d="M142.9,62.4c-0.4-0.4-0.2-0.6-0.2-0.6l0.5-0.5v-0.1c0,0,2.6-2.5,2.8-2.7c0.2-0.2,0.2-0.1,0.2-0.1
				s0.3-0.2,0.4-0.4c0.2-0.1,0.3-0.2,0.4-0.1l0.3,0.2c0.5,0.5,1.4,1.3,2.1,1.7c0.1,0.1,0.3,0.3,0,0.6c-0.3,0.3-0.4,0.4-0.4,0.4
				l0,0.1l-2.9,2.8l-0.1,0l-0.4,0.4c0,0-0.2,0.2-0.7-0.1C144.3,63.6,143.4,62.9,142.9,62.4z"/>
			<path class="st8" d="M146,63.6c-0.8-0.6-2.1-1.5-2.8-2.3"/>
		</g>
		<path class="st8" d="M149,60.8c-0.7-0.5-2.1-1.6-2.8-2.3"/>
	</g>
	<path class="st7" d="M150.8,57.2c0.1-0.2,0.1-0.4-0.1-0.5c-0.2-0.1-0.4-0.1-0.6,0.1c-0.1,0.2-0.1,0.4,0.1,0.5
		C150.5,57.3,150.7,57.3,150.8,57.2"/>
</g>
<path class="st6" d="M155.8,50.2c0,0-1.5,7.9-1.7,9c-0.2,1.1-0.3,1.5,0,1.6c0.3,0.1,0.4,0.1,0.5-0.4c0.1-0.5,1.5-7.9,1.7-9
	c0.2-1.2,0.4-1.4,0-1.4C156.1,49.9,155.8,49.9,155.8,50.2z"/>
<path class="st6" d="M103.2,112c0.9,0.3,2,0.3,4.6-1.2c7.8-4.6,30.9-28.8,34-32.4c1.8-2.1,3.1-4,3.1-4c0-0.1,1-1.9,0.5-2.9
	c-0.2-0.5-0.9-1.6-2.6-2.1c-0.6-0.2,1,0.6,0,2.6c-0.2,0.4-1.4,2-3.5,4.5c-3.4,4-33.6,33.1-33.7,33.4c-0.1,0.2-1.2,0.6-1.3,0.7
	c-0.4,0.6-0.4,0.5-0.5,0.9C102.6,111.9,103.2,112,103.2,112z"/>
<g>
	<path class="st0" d="M7.7,2.3C5.3,4.4,4,8.6,4,11.6H1.6C1.8,8.2,3.2,5,5.3,2.5H0V0.4h7.7V2.3z"/>
	<path class="st0" d="M14.5,11.6h-2.3V4.3H9.5V2.6c1.6,0,3-0.5,3.3-2.2h1.8V11.6z"/>
	<path class="st0" d="M25.5,0.1c2,0,2.6,1.5,2.6,3.2c0,1.7-0.8,3-2.7,3c-2,0-2.6-1.3-2.6-3.1C22.8,1.6,23.7,0.1,25.5,0.1z M25.5,5.2
		c1,0,1.1-1.2,1.1-1.8c0-0.6,0-2-1-2c-1,0-1.1,1.3-1.1,2C24.4,4,24.4,5.2,25.5,5.2z M32.3,0h1.4l-6.6,11.9h-1.4L32.3,0z M33.8,5.5
		c2,0,2.6,1.4,2.6,3.2c0,1.7-0.8,3.1-2.7,3.1c-2,0-2.6-1.4-2.6-3.2C31.1,6.9,31.9,5.5,33.8,5.5z M33.7,10.6c1,0,1.1-1.2,1.1-1.9
		c0-0.6,0-1.9-1-1.9c-1,0-1.1,1.2-1.1,1.9C32.7,9.3,32.7,10.6,33.7,10.6z"/>
</g>
<g>
	<path class="st0" d="M153.7,23.3c-2.4,2.1-3.6,6.3-3.7,9.3h-2.4c0.3-3.3,1.6-6.5,3.8-9.1h-5.3v-2.1h7.7V23.3z"/>
	<path class="st0" d="M160.6,32.6h-2.3v-7.3h-2.8v-1.7c1.6,0,3-0.5,3.3-2.2h1.8V32.6z"/>
	<path class="st0" d="M171.6,21.1c2,0,2.6,1.5,2.6,3.2c0,1.7-0.8,3-2.7,3c-2,0-2.6-1.3-2.6-3.1C168.9,22.6,169.7,21.1,171.6,21.1z
		 M171.5,26.2c1,0,1.1-1.2,1.1-1.8c0-0.6,0-2-1-2c-1,0-1.1,1.3-1.1,2C170.5,25,170.5,26.2,171.5,26.2z M178.4,21h1.4l-6.6,11.9h-1.4
		L178.4,21z M179.9,26.5c2,0,2.6,1.4,2.6,3.2c0,1.7-0.8,3.1-2.7,3.1c-2,0-2.6-1.4-2.6-3.2C177.1,27.9,178,26.5,179.9,26.5z
		 M179.8,31.6c1,0,1.1-1.2,1.1-1.9c0-0.6,0-1.9-1-1.9c-1,0-1.1,1.2-1.1,1.9C178.8,30.3,178.8,31.6,179.8,31.6z"/>
</g>
<g>
	<path class="st0" d="M91.8,180h-2.3v-7.3h-2.8V171c1.6,0,3-0.5,3.3-2.2h1.8V180z"/>
	<path class="st0" d="M98.8,168.6c2.2,0,4.1,1.4,4.1,5.8c0,4.5-1.9,5.9-4.1,5.9c-2.2,0-4.1-1.4-4.1-5.9
		C94.7,170,96.6,168.6,98.8,168.6z M98.8,178.4c1.9,0,1.9-2.7,1.9-4c0-1.2,0-3.9-1.9-3.9c-1.8,0-1.8,2.7-1.8,3.9
		C97,175.6,97,178.4,98.8,178.4z"/>
	<path class="st0" d="M107.7,168.6c2.2,0,4.1,1.4,4.1,5.8c0,4.5-1.9,5.9-4.1,5.9c-2.2,0-4.1-1.4-4.1-5.9
		C103.6,170,105.5,168.6,107.7,168.6z M107.7,178.4c1.9,0,1.9-2.7,1.9-4c0-1.2,0-3.9-1.9-3.9c-1.8,0-1.8,2.7-1.8,3.9
		C105.9,175.6,105.9,178.4,107.7,178.4z"/>
	<path class="st0" d="M120.6,168.6c2,0,2.6,1.5,2.6,3.2c0,1.7-0.8,3-2.7,3c-2,0-2.6-1.3-2.6-3.1C117.8,170,118.7,168.6,120.6,168.6z
		 M120.5,173.6c1,0,1.1-1.2,1.1-1.8c0-0.6,0-2-1-2c-1,0-1.1,1.3-1.1,2C119.5,172.5,119.5,173.6,120.5,173.6z M127.3,168.4h1.4
		l-6.6,11.9h-1.4L127.3,168.4z M128.8,174c2,0,2.6,1.4,2.6,3.2c0,1.7-0.8,3.1-2.7,3.1c-2,0-2.6-1.4-2.6-3.2
		C126.1,175.3,126.9,174,128.8,174z M128.8,179c1,0,1.1-1.2,1.1-1.9c0-0.6,0-1.9-1-1.9c-1,0-1.1,1.2-1.1,1.9
		C127.7,177.8,127.7,179,128.8,179z"/>
</g>
<g>
	<g>
		<g>
			<g>
				<path class="st13" d="M177.2,148.9l-16.7-30.4l0,0l0-0.1c-1.2-2.1-3.5-3.5-5.9-3.5c-2.5,0-4.8,1.4-6,3.5l0,0l0,0L131.6,149
					c-1.2,2.1-1.1,4.6,0.1,6.6c1.2,2.1,3.6,3.4,6.1,3.3h-0.1h33.7h-0.1c2.5,0.1,4.8-1.2,6-3.4C178.4,153.5,178.4,151,177.2,148.9z"
					/>
			</g>
			<path class="st14" d="M173.8,150.7c0.5,0.9,0.6,2,0,2.9c-0.5,0.9-1.5,1.5-2.6,1.5h-33.7c-1,0-2-0.4-2.6-1.4c-0.5-0.9-0.5-2,0-2.9
				l16.9-30.6c0.5-0.9,1.4-1.5,2.5-1.5c1.1,0,2,0.6,2.5,1.5L173.8,150.7z"/>
		</g>
	</g>
</g>
<path class="st0" d="M152.3,149.7c0.1-0.5,0.2-0.9,0.4-1.3c0.2-0.3,0.5-0.6,0.8-0.8c0.3-0.2,0.6-0.3,1-0.3c0.3,0,0.7,0.1,1,0.2
	c0.3,0.2,0.6,0.4,0.8,0.8c0.2,0.3,0.3,0.8,0.3,1.3c0,0.8-0.2,1.3-0.6,1.8c-0.4,0.4-0.9,0.6-1.4,0.6c-0.5,0-1-0.2-1.5-0.5
	C152.6,151.2,152.4,150.6,152.3,149.7z M152.6,132.3c0.2-0.5,0.4-0.9,0.7-1.2c0.3-0.3,0.6-0.4,1-0.5c0.3,0,0.7,0.1,1,0.3
	c0.3,0.2,0.6,0.6,0.8,1.2c0,1.1,0.1,2.1,0.1,3.1c0,1,0,1.9,0.1,2.8c0,0.9,0,1.8,0,2.7c0,0.9,0,1.8-0.1,2.7c0,0.7-0.2,1.1-0.6,1.5
	c-0.4,0.3-0.8,0.5-1.2,0.5c-0.4,0-0.8-0.2-1.2-0.5c-0.4-0.3-0.5-0.8-0.5-1.5v-10.9L152.6,132.3z"/>
<g>
	<polygon class="st15" points="66.2,171.9 69.2,170.2 75.3,170.2 78.4,171.9 80.8,179.5 76.5,181.2 68,181.2 63.8,179.5 	"/>
	<line class="st16" x1="69.2" y1="173.6" x2="68" y2="181.2"/>
	<line class="st16" x1="75.2" y1="173.9" x2="76.5" y2="181.2"/>
	<polyline class="st17" points="78.4,171.9 75.3,173.6 69.2,173.6 66.2,171.9 	"/>
	<circle class="st18" cx="72.5" cy="169" r="2.7"/>
</g>
</svg>
